<?xml version="1.0" encoding="utf-8"?>
<!-- Generator: Adobe Illustrator 16.0.0, SVG Export Plug-In . SVG Version: 6.00 Build 0)  -->
<!DOCTYPE svg PUBLIC "-//W3C//DTD SVG 1.1//EN" "http://www.w3.org/Graphics/SVG/1.1/DTD/svg11.dtd">
<svg version="1.1" id="Layer_1" xmlns="http://www.w3.org/2000/svg" xmlns:xlink="http://www.w3.org/1999/xlink" x="0px" y="0px"
	 width="500px" height="500px" viewBox="0 0 500 500" enable-background="new 0 0 500 500" xml:space="preserve">
<g>
	<g>
		<path fill="#F15A29" d="M275.829-397.763c0,9.717-7.875,17.592-17.593,17.592H125.759c-9.713,0-17.588-7.875-17.588-17.592
			v-132.476c0-9.715,7.875-17.591,17.588-17.591h132.477c9.718,0,17.593,7.876,17.593,17.591V-397.763z"/>
	</g>
	<g>
		<g opacity="0.2">
			<g>
				<polygon points="252.874,-441.574 139.668,-441.574 131.731,-518.64 259.557,-517.891 				"/>
			</g>
			<g>
				<polygon points="244.621,-447.133 147.741,-447.133 140.95,-513.082 250.338,-512.441 				"/>
			</g>
			<g>
				<polygon points="264.085,-411.898 130.061,-411.898 139.668,-441.574 252.874,-441.574 				"/>
			</g>
			<g opacity="0.2">
				<polygon points="156.821,-431.384 145.188,-431.384 147.236,-437.713 156.759,-437.713 				"/>
			</g>
			<g opacity="0.2">
				<polygon points="171.234,-431.384 159.598,-431.384 161.646,-437.713 171.168,-437.713 				"/>
			</g>
			<g opacity="0.2">
				<polygon points="185.643,-431.384 174.01,-431.384 176.058,-437.713 185.58,-437.713 				"/>
			</g>
			<g opacity="0.2">
				<polygon points="200.056,-431.384 188.419,-431.384 190.469,-437.713 199.992,-437.713 				"/>
			</g>
			<g opacity="0.2">
				<polygon points="214.466,-431.384 202.832,-431.384 204.881,-437.713 214.401,-437.713 				"/>
			</g>
			<g opacity="0.2">
				<polygon points="228.877,-431.384 217.242,-431.384 219.292,-437.713 228.813,-437.713 				"/>
			</g>
			<g opacity="0.2">
				<polygon points="243.288,-431.384 231.653,-431.384 233.702,-437.713 243.223,-437.713 				"/>
			</g>
			<g opacity="0.2">
				<polygon points="156.821,-421.503 145.188,-421.503 147.236,-427.832 156.759,-427.832 				"/>
			</g>
			<g opacity="0.2">
				<polygon points="171.234,-421.503 159.598,-421.503 161.646,-427.832 171.168,-427.832 				"/>
			</g>
			<g opacity="0.2">
				<polygon points="185.643,-421.503 174.01,-421.503 176.058,-427.832 185.58,-427.832 				"/>
			</g>
			<g opacity="0.2">
				<polygon points="200.056,-421.503 188.419,-421.503 190.469,-427.832 199.992,-427.832 				"/>
			</g>
			<g opacity="0.2">
				<polygon points="214.466,-421.503 202.832,-421.503 204.881,-427.832 214.401,-427.832 				"/>
			</g>
			<g opacity="0.2">
				<polygon points="228.877,-421.503 217.242,-421.503 219.292,-427.832 228.813,-427.832 				"/>
			</g>
			<g opacity="0.2">
				<polygon points="243.288,-421.503 231.653,-421.503 233.702,-427.832 243.223,-427.832 				"/>
			</g>
			<g>
				<rect x="130.061" y="-411.898" width="134.024" height="7.102"/>
			</g>
			<g>
				<path d="M196.391-497.912c0,0-1.955-7.303-5.295-7.167c-3.34,0.134-4.084,6.837-1.416,9.604
					c-4.903,0.746-8.21,11.705-9.166,12.14c-1.847,0.837-10.914,2.852-9.989,12.198c0.762,7.741,12.974,19.238,32.157,15.526
					c19.183-3.71,26.156-11.795,25.724-18.496c-0.433-6.702-6.303-10.622-10.605-10.222c-6.145,0.57-5.815,0.414-5.815,0.414
					s-0.091-8.312-5.741-10.297c-0.586-0.207-2.229-0.938-2.229-0.938s0.935-8.069-1.511-10.153
					C200.056-507.387,196.478-501.118,196.391-497.912z"/>
			</g>
			<g>
				<circle cx="203.318" cy="-487.996" r="1.74"/>
			</g>
			<g>
				<circle cx="193.647" cy="-486.98" r="1.739"/>
			</g>
			<g>
				<path d="M197.651-481.4c0.142,0.949,1.027,1.604,1.979,1.462c0.948-0.14,1.604-1.024,1.462-1.974
					c-0.14-0.953-0.902-0.779-1.853-0.639C198.29-482.408,197.509-482.354,197.651-481.4z"/>
			</g>
			<g>
				<path d="M221.38-476.797c0,0-0.968-3.662-5.21-3.032c-4.24,0.632-9.161,2.632-14.309,3.079
					c-5.146,0.451-11.679,1.316-15.364,0.7c-3.687-0.616-8.57-1.475-9.825,1.462c-1.256,2.936,0.602,11.857,17.649,11.328
					c17.047-0.524,20.644-2.646,23.483-4.867C220.647-470.346,222.631-472.648,221.38-476.797z"/>
			</g>
			<g>
				<path d="M204.979-481.792c-0.126,0-0.247-0.056-0.33-0.162c-0.141-0.183-0.109-0.444,0.073-0.587
					c1.273-0.994,4.275-1.504,6.569-1.756c0.076-0.01,0.13-0.014,0.154-0.017c0.226-0.032,0.438,0.126,0.471,0.354
					s-0.128,0.439-0.354,0.473c-0.027,0.002-0.09,0.009-0.178,0.018c-4.172,0.461-5.642,1.193-6.148,1.586
					C205.161-481.824,205.068-481.792,204.979-481.792z"/>
			</g>
			<g>
				<path d="M190.158-481.109c-0.059,0-0.116-0.017-0.17-0.051c-0.054-0.036-5.417-3.443-10.244-1.196
					c-0.157,0.072-0.344,0.005-0.416-0.151c-0.073-0.156-0.005-0.345,0.151-0.416c5.146-2.395,10.618,1.09,10.85,1.239
					c0.146,0.093,0.188,0.288,0.092,0.432C190.361-481.16,190.262-481.109,190.158-481.109z"/>
			</g>
			<g>
				<path d="M217.909-468.117l-0.205-0.018c0.56-6.007-2.864-11.357-2.901-11.41l0.178-0.113
					C215.015-479.605,218.479-474.193,217.909-468.117z"/>
			</g>
			<g>
				<path d="M213.182-465.541l-0.206-0.033c1.056-6.186-2.619-12.81-2.656-12.875l0.181-0.103
					C210.539-478.486,214.249-471.795,213.182-465.541z"/>
			</g>
			<g>
				<path d="M208.617-464.85l-0.203-0.057c0.635-2.367-1.858-12.508-1.885-12.608l0.203-0.051
					C206.836-477.147,209.263-467.273,208.617-464.85z"/>
			</g>
			<g>
				<path d="M204.272-464.242c-0.49-2.511-1.854-12.461-1.867-12.561l0.207-0.029c0.015,0.102,1.375,10.045,1.865,12.549
					L204.272-464.242z"/>
			</g>
			<g>
				<path d="M199.437-463.494c-1.582-3.066-1.138-12.33-1.118-12.722l0.212,0.011c-0.008,0.097-0.465,9.598,1.091,12.615
					L199.437-463.494z"/>
			</g>
			<g>
				<path d="M194.223-463.223c-1.448-3.848-0.755-12.303-0.745-12.387l0.206,0.02c-0.007,0.085-0.696,8.49,0.734,12.295
					L194.223-463.223z"/>
			</g>
			<g>
				<path d="M188.969-463.393c-1.619-4.908,0.494-12.398,0.516-12.475l0.199,0.057c-0.021,0.074-2.115,7.506-0.516,12.354
					L188.969-463.393z"/>
			</g>
			<g>
				<path d="M183.712-464.479c-0.574-1.283-0.506-3.664,0.211-7.071c0.528-2.528,1.236-4.715,1.244-4.733l0.197,0.064
					c-0.026,0.084-2.795,8.68-1.461,11.652L183.712-464.479z"/>
			</g>
			<g>
				<path d="M197.091-469.653c-6.957,0-12.11-0.947-15.267-1.767c-3.611-0.939-5.466-1.92-5.483-1.931l0.1-0.183
					c0.018,0.01,1.855,0.98,5.445,1.913c3.315,0.858,8.842,1.86,16.357,1.749c14.379-0.213,22.986-6.94,23.07-7.008l0.131,0.164
					c-0.085,0.066-8.751,6.836-23.196,7.053C197.854-469.656,197.471-469.653,197.091-469.653z"/>
			</g>
			<g>
				<path d="M194.021-498.504c0,0-1.955-7.303-5.294-7.167c-3.341,0.134-4.085,6.837-1.417,9.604
					c-4.903,0.745-8.21,11.706-9.165,12.14c-1.848,0.838-10.914,2.852-9.99,12.197c0.764,7.742,12.974,19.239,32.158,15.529
					c19.183-3.711,26.155-11.796,25.722-18.498c-0.433-6.701-6.302-10.623-10.604-10.22c-6.144,0.569-5.814,0.413-5.814,0.413
					s-0.09-8.311-5.739-10.297c-0.589-0.205-2.232-0.94-2.232-0.94s0.936-8.069-1.51-10.152
					C197.688-507.978,194.108-501.709,194.021-498.504z"/>
			</g>
			<g>
				<path d="M199.227-488.332c0.144,0.949,1.029,1.605,1.979,1.465c0.949-0.143,1.606-1.027,1.465-1.977
					c-0.142-0.953-1.025-1.606-1.977-1.465C199.744-490.168,199.088-489.285,199.227-488.332z"/>
			</g>
			<g>
				<circle cx="191.279" cy="-487.572" r="1.74"/>
			</g>
			<g>
				<path d="M195.283-481.994c0.143,0.951,1.025,1.605,1.977,1.465c0.949-0.143,1.606-1.027,1.465-1.977
					c-0.14-0.95-0.904-0.777-1.854-0.636C195.92-483.002,195.141-482.945,195.283-481.994z"/>
			</g>
			<g>
				<path d="M219.012-477.391c0,0-0.97-3.66-5.208-3.031c-4.242,0.633-9.165,2.632-14.311,3.081
					c-5.146,0.448-11.678,1.313-15.365,0.697c-3.684-0.612-8.573-1.471-9.824,1.462c-1.257,2.938,0.601,11.857,17.647,11.331
					c17.049-0.527,20.646-2.646,23.487-4.866C218.279-470.937,220.262-473.24,219.012-477.391z"/>
			</g>
			<g>
				<path d="M202.612-482.386c-0.126,0-0.247-0.055-0.33-0.159c-0.144-0.184-0.111-0.445,0.072-0.587
					c1.272-0.994,4.276-1.504,6.57-1.757c0.075-0.008,0.129-0.016,0.153-0.018c0.226-0.033,0.438,0.125,0.471,0.355
					c0.032,0.228-0.129,0.438-0.354,0.471c-0.027,0.004-0.089,0.012-0.18,0.021c-4.172,0.46-5.642,1.19-6.147,1.587
					C202.791-482.415,202.701-482.386,202.612-482.386z"/>
			</g>
			<g>
				<path d="M187.789-481.701c-0.059,0-0.116-0.016-0.17-0.053c-0.054-0.032-5.417-3.44-10.242-1.195
					c-0.157,0.074-0.346,0.006-0.416-0.152c-0.075-0.155-0.007-0.342,0.15-0.414c5.145-2.395,10.618,1.088,10.85,1.237
					c0.145,0.095,0.187,0.288,0.091,0.434C187.993-481.754,187.893-481.701,187.789-481.701z"/>
			</g>
			<g>
				<path d="M215.541-468.706l-0.209-0.021c0.564-6.006-2.861-11.357-2.896-11.409l0.174-0.116
					C212.646-480.197,216.109-474.785,215.541-468.706z"/>
			</g>
			<g>
				<path d="M210.812-466.131l-0.205-0.035c1.054-6.186-2.62-12.811-2.656-12.877l0.183-0.102
					C208.17-479.076,211.881-472.389,210.812-466.131z"/>
			</g>
			<g>
				<path d="M206.247-465.443l-0.201-0.053c0.633-2.371-1.858-12.508-1.885-12.611l0.203-0.052
					C204.467-477.737,206.896-467.865,206.247-465.443z"/>
			</g>
			<g>
				<path d="M201.904-464.834c-0.491-2.51-1.854-12.461-1.867-12.561l0.206-0.029c0.015,0.1,1.375,10.047,1.867,12.549
					L201.904-464.834z"/>
			</g>
			<g>
				<path d="M197.066-464.086c-1.579-3.068-1.135-12.326-1.113-12.721l0.206,0.012c-0.002,0.093-0.463,9.596,1.094,12.614
					L197.066-464.086z"/>
			</g>
			<g>
				<path d="M191.855-463.812c-1.448-3.849-0.755-12.303-0.746-12.388l0.207,0.017c-0.009,0.085-0.698,8.49,0.733,12.296
					L191.855-463.812z"/>
			</g>
			<g>
				<path d="M186.6-463.983c-1.618-4.909,0.494-12.4,0.516-12.476l0.2,0.059c-0.021,0.073-2.116,7.506-0.517,12.351L186.6-463.983z"
					/>
			</g>
			<g>
				<path d="M181.346-465.07c-0.578-1.283-0.505-3.662,0.208-7.07c0.532-2.529,1.236-4.713,1.246-4.736l0.195,0.065
					c-0.026,0.087-2.794,8.681-1.459,11.655L181.346-465.07z"/>
			</g>
			<g>
				<path d="M194.723-470.246c-6.956,0-12.111-0.948-15.268-1.768c-3.609-0.938-5.462-1.919-5.48-1.926l0.097-0.186
					c0.021,0.008,1.857,0.979,5.447,1.911c3.314,0.86,8.84,1.862,16.357,1.751c14.377-0.215,22.985-6.941,23.069-7.008l0.13,0.164
					c-0.086,0.067-8.749,6.837-23.195,7.053C195.487-470.25,195.102-470.246,194.723-470.246z"/>
			</g>
		</g>
		<g>
			<g>
				<polygon fill="#00A79D" points="248.729,-445.718 135.523,-445.718 127.585,-522.783 255.411,-522.036 				"/>
			</g>
			<g>
				<polygon fill="#00DDC7" points="240.475,-451.275 143.597,-451.275 136.804,-517.225 246.192,-516.587 				"/>
			</g>
			<g>
				<polygon fill="#00A79D" points="259.94,-416.044 125.915,-416.044 135.523,-445.718 248.729,-445.718 				"/>
			</g>
			<g opacity="0.2">
				<polygon fill="#414042" points="152.676,-435.529 141.042,-435.529 143.091,-441.858 152.613,-441.858 				"/>
			</g>
			<g opacity="0.2">
				<polygon fill="#414042" points="167.088,-435.529 155.455,-435.529 157.504,-441.858 167.022,-441.858 				"/>
			</g>
			<g opacity="0.2">
				<polygon fill="#414042" points="181.499,-435.529 169.865,-435.529 171.912,-441.858 181.437,-441.858 				"/>
			</g>
			<g opacity="0.2">
				<polygon fill="#414042" points="195.912,-435.529 184.276,-435.529 186.325,-441.858 195.846,-441.858 				"/>
			</g>
			<g opacity="0.2">
				<polygon fill="#414042" points="210.321,-435.529 198.687,-435.529 200.735,-441.858 210.257,-441.858 				"/>
			</g>
			<g opacity="0.2">
				<polygon fill="#414042" points="224.735,-435.529 213.1,-435.529 215.148,-441.858 224.669,-441.858 				"/>
			</g>
			<g opacity="0.2">
				<polygon fill="#414042" points="239.144,-435.529 227.51,-435.529 229.558,-441.858 239.08,-441.858 				"/>
			</g>
			<g opacity="0.2">
				<polygon fill="#414042" points="152.676,-425.649 141.042,-425.649 143.091,-431.978 152.613,-431.978 				"/>
			</g>
			<g opacity="0.2">
				<polygon fill="#414042" points="167.088,-425.649 155.455,-425.649 157.504,-431.978 167.022,-431.978 				"/>
			</g>
			<g opacity="0.2">
				<polygon fill="#414042" points="181.499,-425.649 169.865,-425.649 171.912,-431.978 181.437,-431.978 				"/>
			</g>
			<g opacity="0.2">
				<polygon fill="#414042" points="195.912,-425.649 184.276,-425.649 186.325,-431.978 195.846,-431.978 				"/>
			</g>
			<g opacity="0.2">
				<polygon fill="#414042" points="210.321,-425.649 198.687,-425.649 200.735,-431.978 210.257,-431.978 				"/>
			</g>
			<g opacity="0.2">
				<polygon fill="#414042" points="224.735,-425.649 213.1,-425.649 215.148,-431.978 224.669,-431.978 				"/>
			</g>
			<g opacity="0.2">
				<polygon fill="#414042" points="239.144,-425.649 227.51,-425.649 229.558,-431.978 239.08,-431.978 				"/>
			</g>
			<g>
				<rect x="125.915" y="-416.044" fill="#009385" width="134.025" height="7.104"/>
			</g>
			<g>
				<g opacity="0.1">
					<g>
						<path d="M192.245-502.056c0,0-1.954-7.303-5.296-7.169c-3.339,0.135-4.083,6.839-1.413,9.605
							c-4.906,0.744-8.212,11.705-9.167,12.141c-1.848,0.836-10.913,2.852-9.989,12.196c0.763,7.743,12.974,19.238,32.156,15.528
							c19.183-3.711,26.158-11.796,25.724-18.497c-0.433-6.703-6.302-10.622-10.606-10.22c-6.142,0.57-5.812,0.412-5.812,0.412
							s-0.095-8.31-5.741-10.297c-0.586-0.205-2.23-0.939-2.23-0.939s0.935-8.068-1.511-10.153
							C195.912-511.531,192.332-505.262,192.245-502.056z"/>
					</g>
					<g>
						<path d="M197.452-491.884c0.142,0.95,1.025,1.604,1.978,1.463c0.95-0.142,1.605-1.025,1.466-1.976
							c-0.145-0.952-1.027-1.606-1.978-1.463C197.969-493.721,197.312-492.836,197.452-491.884z"/>
					</g>
					<g>
						<circle cx="189.503" cy="-491.125" r="1.741"/>
					</g>
					<g>
						<path d="M193.507-485.545c0.143,0.95,1.026,1.604,1.978,1.463c0.949-0.141,1.606-1.025,1.465-1.976
							c-0.143-0.952-0.904-0.776-1.853-0.638C194.144-486.553,193.364-486.498,193.507-485.545z"/>
					</g>
					<g>
						<path d="M217.234-480.941c0,0-0.967-3.662-5.208-3.031c-4.24,0.629-9.161,2.631-14.311,3.078
							c-5.145,0.449-11.677,1.314-15.363,0.699c-3.686-0.613-8.573-1.472-9.825,1.461c-1.255,2.938,0.6,11.858,17.646,11.332
							c17.052-0.527,20.645-2.647,23.488-4.867C216.503-474.489,218.486-476.793,217.234-480.941z"/>
					</g>
					<g>
						<path d="M200.835-485.938c-0.125,0-0.249-0.055-0.329-0.162c-0.141-0.181-0.109-0.443,0.072-0.586
							c1.271-0.993,4.274-1.504,6.571-1.756c0.076-0.008,0.13-0.016,0.151-0.02c0.228-0.029,0.44,0.129,0.472,0.357
							c0.032,0.229-0.127,0.438-0.354,0.471c-0.027,0.004-0.09,0.01-0.178,0.021c-4.173,0.459-5.643,1.189-6.148,1.586
							C201.017-485.967,200.926-485.938,200.835-485.938z"/>
					</g>
					<g>
						<path d="M186.013-485.254c-0.056,0-0.116-0.016-0.17-0.051c-0.053-0.034-5.418-3.442-10.244-1.195
							c-0.155,0.071-0.342,0.004-0.416-0.153c-0.073-0.155-0.004-0.343,0.153-0.417c5.144-2.395,10.617,1.091,10.85,1.24
							c0.144,0.094,0.188,0.288,0.092,0.433C186.217-485.305,186.116-485.254,186.013-485.254z"/>
					</g>
					<g>
						<path d="M213.765-472.26l-0.207-0.021c0.562-6.005-2.862-11.356-2.897-11.408l0.175-0.113
							C210.869-483.75,214.333-478.338,213.765-472.26z"/>
					</g>
					<g>
						<path d="M209.036-469.684l-0.206-0.034c1.056-6.187-2.617-12.811-2.656-12.876l0.183-0.103
							C206.394-482.629,210.103-475.94,209.036-469.684z"/>
					</g>
					<g>
						<path d="M204.473-468.996l-0.203-0.055c0.634-2.369-1.858-12.507-1.883-12.608l0.2-0.052
							C202.691-481.291,205.12-471.416,204.473-468.996z"/>
					</g>
					<g>
						<path d="M200.129-468.386c-0.493-2.513-1.854-12.46-1.867-12.562l0.206-0.028c0.013,0.101,1.373,10.046,1.865,12.548
							L200.129-468.386z"/>
					</g>
					<g>
						<path d="M195.292-467.638c-1.581-3.07-1.137-12.329-1.117-12.722l0.209,0.01c-0.007,0.098-0.462,9.597,1.092,12.615
							L195.292-467.638z"/>
					</g>
					<g>
						<path d="M190.076-467.365c-1.445-3.85-0.751-12.303-0.745-12.389l0.208,0.02c-0.006,0.084-0.696,8.49,0.732,12.295
							L190.076-467.365z"/>
					</g>
					<g>
						<path d="M184.824-467.537c-1.619-4.906,0.493-12.398,0.515-12.473l0.202,0.057c-0.021,0.072-2.118,7.505-0.52,12.352
							L184.824-467.537z"/>
					</g>
					<g>
						<path d="M179.568-468.623c-0.576-1.282-0.505-3.662,0.21-7.072c0.53-2.527,1.236-4.713,1.242-4.733l0.202,0.065
							c-0.028,0.086-2.797,8.682-1.462,11.654L179.568-468.623z"/>
					</g>
					<g>
						<path d="M192.947-473.797c-6.956,0-12.11-0.949-15.268-1.771c-3.609-0.937-5.465-1.919-5.481-1.927l0.097-0.184
							c0.02,0.01,1.858,0.979,5.447,1.912c3.316,0.859,8.84,1.861,16.358,1.751c14.378-0.214,22.984-6.942,23.071-7.01l0.129,0.163
							c-0.086,0.07-8.751,6.84-23.199,7.055C193.711-473.801,193.327-473.797,192.947-473.797z"/>
					</g>
				</g>
				<g>
					<g>
						<g>
							<path fill="#E28FD8" d="M189.879-502.648c0,0-1.956-7.302-5.298-7.168c-3.338,0.135-4.082,6.839-1.415,9.604
								c-4.903,0.745-8.208,11.706-9.165,12.14c-1.849,0.839-10.914,2.854-9.99,12.199c0.763,7.74,12.976,19.237,32.159,15.527
								c19.182-3.711,26.155-11.795,25.723-18.498c-0.435-6.701-6.304-10.621-10.608-10.221c-6.141,0.57-5.812,0.413-5.812,0.413
								s-0.092-8.311-5.74-10.298c-0.587-0.203-2.232-0.938-2.232-0.938s0.937-8.07-1.51-10.152
								C193.543-512.123,189.963-505.854,189.879-502.648z"/>
						</g>
					</g>
					<g>
						<g>
							<path fill="#414042" d="M195.084-492.477c0.142,0.951,1.025,1.607,1.978,1.465c0.949-0.143,1.604-1.025,1.465-1.975
								c-0.142-0.954-1.028-1.608-1.978-1.467C195.6-494.311,194.942-493.428,195.084-492.477z"/>
						</g>
					</g>
					<g>
						<g>
							<circle fill="#414042" cx="187.134" cy="-491.717" r="1.741"/>
						</g>
					</g>
					<g>
						<g>
							<path fill="#414042" d="M191.139-486.139c0.142,0.95,1.025,1.606,1.978,1.465c0.949-0.143,1.606-1.027,1.464-1.975
								c-0.143-0.951-0.903-0.779-1.853-0.639C191.775-487.146,190.996-487.088,191.139-486.139z"/>
						</g>
					</g>
					<g>
						<g>
							<path fill="#FFFFFF" d="M214.868-481.533c0,0-0.969-3.661-5.21-3.031s-9.162,2.631-14.309,3.08
								c-5.148,0.447-11.679,1.312-15.364,0.699c-3.688-0.615-8.573-1.476-9.827,1.461c-1.255,2.934,0.6,11.855,17.651,11.33
								c17.046-0.527,20.64-2.647,23.482-4.867C214.134-475.081,216.119-477.385,214.868-481.533z"/>
						</g>
					</g>
					<g>
						<path fill="#E580CF" d="M198.468-486.53c-0.126,0-0.247-0.056-0.329-0.161c-0.143-0.18-0.111-0.445,0.07-0.584
							c1.274-0.995,4.275-1.506,6.571-1.76c0.075-0.006,0.129-0.014,0.151-0.016c0.229-0.033,0.441,0.127,0.472,0.355
							c0.032,0.227-0.127,0.439-0.354,0.471c-0.028,0.006-0.089,0.013-0.179,0.021c-4.17,0.459-5.644,1.19-6.146,1.584
							C198.647-486.559,198.557-486.53,198.468-486.53z"/>
					</g>
					<g>
						<path fill="#E580CF" d="M183.644-485.847c-0.056,0-0.116-0.017-0.17-0.05c-0.052-0.033-5.415-3.443-10.243-1.195
							c-0.155,0.072-0.342,0.004-0.414-0.153c-0.075-0.157-0.007-0.341,0.15-0.416c5.144-2.395,10.619,1.089,10.849,1.237
							c0.146,0.095,0.187,0.289,0.093,0.436C183.848-485.896,183.749-485.847,183.644-485.847z"/>
					</g>
					<g>
						<path fill="#231F20" d="M211.397-472.853l-0.209-0.019c0.562-6.005-2.861-11.356-2.897-11.41l0.178-0.113
							C208.502-484.34,211.967-478.928,211.397-472.853z"/>
					</g>
					<g>
						<path fill="#231F20" d="M202.104-469.588l-0.202-0.053c0.632-2.371-1.857-12.508-1.883-12.612l0.2-0.048
							C200.324-481.883,202.751-472.008,202.104-469.588z"/>
					</g>
					<g>
						<path fill="#231F20" d="M192.923-468.23c-1.581-3.068-1.137-12.328-1.116-12.719l0.206,0.008
							c-0.003,0.096-0.459,9.597,1.094,12.615L192.923-468.23z"/>
					</g>
					<g>
						<path fill="#231F20" d="M184.161-468.127c-1.619-4.909,0.495-12.402,0.517-12.476l0.2,0.056
							c-0.022,0.076-2.116,7.508-0.52,12.354L184.161-468.127z"/>
					</g>
					<g>
						<path fill="#231F20" d="M177.2-469.215c-0.575-1.284-0.506-3.662,0.21-7.072c0.529-2.527,1.237-4.711,1.242-4.734l0.2,0.064
							c-0.027,0.089-2.795,8.683-1.462,11.657L177.2-469.215z"/>
					</g>
					<g>
						<path fill="#231F20" d="M190.578-474.391c-6.956,0-12.109-0.947-15.266-1.767c-3.611-0.94-5.466-1.919-5.483-1.929
							l0.097-0.184c0.02,0.01,1.858,0.979,5.448,1.912c3.315,0.86,8.84,1.861,16.357,1.749c14.379-0.214,22.984-6.94,23.07-7.008
							l0.13,0.165c-0.087,0.067-8.751,6.838-23.199,7.052C191.342-474.393,190.959-474.391,190.578-474.391z"/>
					</g>
				</g>
			</g>
		</g>
	</g>
	<g>
		<g opacity="0.2">
			<g>
				<polygon points="120.208,-465.938 161.888,-493.665 153.188,-444.366 144.167,-458.696 131.693,-439.623 124.994,-444.006 
					137.624,-463.314 				"/>
			</g>
		</g>
		<g>
			<g>
				<polygon fill="#FFFFFF" points="118.281,-468.827 159.96,-496.557 151.262,-447.256 142.24,-461.588 129.766,-442.514 
					123.066,-446.896 135.696,-466.205 				"/>
			</g>
		</g>
	</g>
	<g>
		<g opacity="0.2">
			<g>
				<path d="M261.371-452.459c0-9.105-3.706-16.488-8.281-16.488c-1.376,0-2.677,0.672-3.819,1.857
					c-0.394-1.828-2.019-3.197-3.965-3.197c-1.653,0-3.075,0.992-3.708,2.414c-0.631-1.422-2.052-2.414-3.707-2.414
					c-1.88,0-3.463,1.281-3.922,3.018l-4.509-15.143c-0.642-2.146-2.858-3.207-5.047-2.729c-3.069,0.67-4.173,3.971-3.532,6.117
					l6.362,21.409l-5.847-6.398c-1.861-1.722-4.764-1.608-6.483,0.251c-1.721,1.86-1.608,4.764,0.252,6.482l14.913,18.258
					c1.035,0.958,6.307,3.204,11.075,4.688l4.12,3.497c4.744-0.257,8.903-2.588,11.643-5.981
					C259.858-439.002,261.371-445.179,261.371-452.459z"/>
			</g>
			<g>
				<path d="M246.535-430.837c0,0-8.423,0.977-16.457-6.51c-9.715-9.052-14.095-17.785-15.753-20.971"/>
			</g>
			<g>
				<path d="M256.286-446.05c-0.1,1.238-1.114,2.09-2.137,1.909l0,0c-1.021-0.18-1.695-1.168-1.61-2.212
					c0.174-2.158,0.006-4.337-0.5-6.438c-0.245-1.021,0.267-2.101,1.249-2.438l0,0c0.982-0.333,2.116,0.351,2.407,1.559
					C256.203-451.078,256.389-448.688,256.286-446.05z"/>
			</g>
			<g>
				<path d="M250.756-445.408c-0.1,1.238-1.115,2.089-2.137,1.91l0,0c-1.022-0.18-1.693-1.167-1.609-2.215
					c0.175-2.154,0.006-4.336-0.5-6.437c-0.244-1.021,0.265-2.101,1.249-2.435l0,0c0.981-0.337,2.115,0.349,2.405,1.557
					C250.672-450.435,250.856-448.049,250.756-445.408z"/>
			</g>
			<g>
				<path d="M244.985-444.748c-0.099,1.237-1.115,2.089-2.136,1.908l0,0c-1.022-0.178-1.694-1.166-1.608-2.213
					c0.173-2.154,0.003-4.335-0.501-6.437c-0.245-1.021,0.266-2.102,1.248-2.437l0,0c0.981-0.336,2.116,0.35,2.406,1.558
					C244.901-449.776,245.087-447.389,244.985-444.748z"/>
			</g>
			<g>
				<path d="M265.626-435.484c1.075,3.61-1.668,7.003-5.133,7.776c-9.171,1.952-18.342,2.742-27.713,2.385
					c-3.545-0.171-6.826-3.042-6.387-6.785l0,0c0.428-3.396,3.65-5.822,7-5.662c8.242,0.306,16.301-0.386,24.37-2.097
					C261.038-440.598,264.628-438.759,265.626-435.484L265.626-435.484z"/>
			</g>
		</g>
		<g>
			<g>
				<path fill="#FFFFFF" d="M259.422-454.411c0-9.104-3.709-16.487-8.282-16.487c-1.377,0-2.678,0.672-3.819,1.855
					c-0.395-1.826-2.02-3.194-3.965-3.194c-1.653,0-3.077,0.992-3.708,2.411c-0.631-1.419-2.054-2.411-3.708-2.411
					c-1.881,0-3.463,1.28-3.922,3.018l-4.51-15.144c-0.641-2.146-2.858-3.207-5.045-2.729c-3.07,0.67-4.175,3.972-3.534,6.117
					l6.364,21.41l-5.848-6.399c-1.86-1.723-4.765-1.609-6.484,0.251c-1.721,1.86-1.608,4.763,0.253,6.482l14.913,18.258
					c1.034,0.958,6.307,3.204,11.075,4.688l4.121,3.496c4.743-0.257,8.901-2.588,11.641-5.98
					C257.907-440.954,259.422-447.13,259.422-454.411z"/>
			</g>
			<g>
				<path fill="#FFFFFF" d="M244.583-432.788c0,0-8.42,0.976-16.456-6.508c-9.716-9.054-14.094-17.788-15.752-20.973"/>
			</g>
			<g>
				<g>
					<path fill="#BCBEC0" d="M254.334-448.002c-0.099,1.238-1.113,2.09-2.135,1.91l0,0c-1.023-0.18-1.694-1.168-1.611-2.213
						c0.176-2.158,0.006-4.336-0.498-6.438c-0.247-1.021,0.264-2.101,1.247-2.435l0,0c0.981-0.337,2.117,0.348,2.406,1.556
						C254.251-453.027,254.437-450.641,254.334-448.002z"/>
				</g>
			</g>
			<g>
				<g>
					<path fill="#BCBEC0" d="M247.275-447.359c-0.101,1.237-1.114,2.09-2.137,1.909l0,0c-1.022-0.179-1.694-1.167-1.611-2.212
						c0.176-2.156,0.008-4.337-0.498-6.439c-0.245-1.02,0.266-2.099,1.247-2.435l0,0c0.982-0.335,2.117,0.35,2.407,1.557
						C247.191-452.387,247.377-449.999,247.275-447.359z"/>
				</g>
			</g>
			<g>
				<g>
					<path fill="#BCBEC0" d="M240.486-446.7c-0.102,1.239-1.115,2.09-2.138,1.909l0,0c-1.023-0.179-1.694-1.167-1.608-2.214
						c0.174-2.153,0.005-4.334-0.501-6.437c-0.244-1.021,0.268-2.1,1.249-2.437l0,0c0.979-0.334,2.115,0.351,2.405,1.558
						C240.401-451.727,240.587-449.339,240.486-446.7z"/>
				</g>
			</g>
			<g>
				<g>
					<path fill="#FFFFFF" d="M263.676-437.437c1.075,3.613-1.67,7.004-5.133,7.777c-9.171,1.951-18.344,2.741-27.714,2.386
						c-3.543-0.173-6.827-3.043-6.386-6.787l0,0c0.428-3.395,3.648-5.821,6.998-5.661c8.246,0.307,16.301-0.386,24.371-2.098
						C259.086-442.549,262.676-440.711,263.676-437.437L263.676-437.437z"/>
				</g>
			</g>
		</g>
	</g>
</g>
<g>
	<g>
		<path fill="#F15A29" d="M496.829,445.031c0,28.61-23.188,51.798-51.801,51.798H54.958c-28.599,0-51.788-23.188-51.788-51.798
			V54.967c0-28.605,23.188-51.796,51.788-51.796h390.07c28.613,0,51.801,23.19,51.801,51.796V445.031z"/>
	</g>
	<g>
		<g opacity="0.2">
			<g>
				<polygon points="429.24,316.031 95.912,316.031 72.543,89.117 448.916,91.322 				"/>
			</g>
			<g>
				<polygon points="404.939,299.664 119.683,299.664 99.688,105.481 421.772,107.368 				"/>
			</g>
			<g>
				<polygon points="462.249,403.409 67.624,403.409 95.912,316.031 429.24,316.031 				"/>
			</g>
			<g opacity="0.2">
				<polygon points="146.419,346.036 112.167,346.036 118.196,327.401 146.235,327.401 				"/>
			</g>
			<g opacity="0.2">
				<polygon points="188.857,346.036 154.593,346.036 160.626,327.401 188.662,327.401 				"/>
			</g>
			<g opacity="0.2">
				<polygon points="231.281,346.036 197.029,346.036 203.059,327.401 231.098,327.401 				"/>
			</g>
			<g opacity="0.2">
				<polygon points="273.719,346.036 239.456,346.036 245.491,327.401 273.533,327.401 				"/>
			</g>
			<g opacity="0.2">
				<polygon points="316.148,346.036 281.895,346.036 287.927,327.401 315.959,327.401 				"/>
			</g>
			<g opacity="0.2">
				<polygon points="358.582,346.036 324.324,346.036 330.359,327.401 358.395,327.401 				"/>
			</g>
			<g opacity="0.2">
				<polygon points="401.015,346.036 366.756,346.036 372.789,327.401 400.821,327.401 				"/>
			</g>
			<g opacity="0.2">
				<polygon points="146.419,375.131 112.167,375.131 118.196,356.494 146.235,356.494 				"/>
			</g>
			<g opacity="0.2">
				<polygon points="188.857,375.131 154.593,375.131 160.626,356.494 188.662,356.494 				"/>
			</g>
			<g opacity="0.2">
				<polygon points="231.281,375.131 197.029,375.131 203.059,356.494 231.098,356.494 				"/>
			</g>
			<g opacity="0.2">
				<polygon points="273.719,375.131 239.456,375.131 245.491,356.494 273.533,356.494 				"/>
			</g>
			<g opacity="0.2">
				<polygon points="316.148,375.131 281.895,375.131 287.927,356.494 315.959,356.494 				"/>
			</g>
			<g opacity="0.2">
				<polygon points="358.582,375.131 324.324,375.131 330.359,356.494 358.395,356.494 				"/>
			</g>
			<g opacity="0.2">
				<polygon points="401.015,375.131 366.756,375.131 372.789,356.494 400.821,356.494 				"/>
			</g>
			<g>
				<rect x="67.624" y="403.409" width="394.625" height="20.91"/>
			</g>
			<g>
				<path d="M262.928,150.148c0,0-5.757-21.502-15.591-21.104c-9.834,0.395-12.024,20.132-4.169,28.28
					c-14.438,2.196-24.173,34.465-26.989,35.744c-5.438,2.465-32.135,8.396-29.412,35.918c2.243,22.792,38.199,56.646,94.685,45.716
					c56.482-10.925,77.016-34.73,75.741-54.461c-1.273-19.734-18.558-31.275-31.227-30.097c-18.092,1.679-17.123,1.219-17.123,1.219
					s-0.268-24.473-16.905-30.318c-1.725-0.609-6.562-2.763-6.562-2.763s2.752-23.76-4.447-29.896
					C273.719,122.251,263.184,140.709,262.928,150.148z"/>
			</g>
			<g>
				<path d="M278.26,180.102c0.414,2.795,3.022,4.725,5.817,4.31c2.797-0.417,4.724-3.021,4.315-5.819
					c-0.42-2.801-3.017-4.728-5.825-4.307C279.772,174.699,277.84,177.297,278.26,180.102z"/>
			</g>
			<g>
				<path d="M249.788,183.089c0.407,2.795,3.018,4.733,5.813,4.313c2.804-0.42,4.73-3.025,4.312-5.82
					c-0.417-2.801-3.019-4.727-5.813-4.315C251.297,177.689,249.365,180.288,249.788,183.089z"/>
			</g>
			<g>
				<path d="M266.641,198.766c0.416,2.795,3.024,4.722,5.825,4.305c2.792-0.411,4.725-3.017,4.305-5.812
					c-0.411-2.806-2.657-2.295-5.455-1.881C268.521,195.799,266.221,195.96,266.641,198.766z"/>
			</g>
			<g>
				<path d="M336.507,212.32c0,0-2.849-10.783-15.34-8.929c-12.485,1.861-26.975,7.75-42.131,9.066
					c-15.153,1.329-34.387,3.877-45.239,2.062c-10.854-1.814-25.234-4.342-28.93,4.304c-3.698,8.645,1.771,34.914,51.968,33.355
					c50.193-1.545,60.783-7.792,69.145-14.331C334.351,231.315,340.19,224.536,336.507,212.32z"/>
			</g>
			<g>
				<path d="M288.218,197.612c-0.371,0-0.728-0.163-0.973-0.477c-0.414-0.538-0.322-1.309,0.216-1.729
					c3.749-2.927,12.588-4.429,19.343-5.17c0.225-0.029,0.383-0.041,0.455-0.049c0.664-0.095,1.29,0.37,1.386,1.043
					c0.095,0.674-0.377,1.295-1.044,1.393c-0.081,0.006-0.265,0.026-0.523,0.051c-12.283,1.358-16.612,3.515-18.104,4.671
					C288.752,197.519,288.479,197.612,288.218,197.612z"/>
			</g>
			<g>
				<path d="M244.577,199.623c-0.173,0-0.342-0.049-0.501-0.15c-0.157-0.106-15.949-10.138-30.162-3.521
					c-0.463,0.212-1.013,0.015-1.226-0.446c-0.216-0.46-0.015-1.015,0.446-1.225c15.149-7.05,31.264,3.209,31.945,3.648
					c0.429,0.274,0.552,0.849,0.271,1.271C245.175,199.473,244.882,199.623,244.577,199.623z"/>
			</g>
			<g>
				<path d="M326.288,237.877l-0.604-0.052c1.648-17.687-8.434-33.44-8.542-33.596l0.522-0.334
					C317.765,204.051,327.964,219.986,326.288,237.877z"/>
			</g>
			<g>
				<path d="M312.368,245.462l-0.607-0.097c3.109-18.214-7.712-37.717-7.82-37.91l0.531-0.302
					C304.587,207.346,315.511,227.049,312.368,245.462z"/>
			</g>
			<g>
				<path d="M298.928,247.499l-0.598-0.168c1.869-6.97-5.472-36.828-5.55-37.124l0.599-0.149
					C293.684,211.288,300.829,240.361,298.928,247.499z"/>
			</g>
			<g>
				<path d="M286.135,249.287c-1.443-7.393-5.46-36.69-5.497-36.983l0.609-0.087c0.044,0.299,4.049,29.576,5.492,36.949
					L286.135,249.287z"/>
			</g>
			<g>
				<path d="M271.896,251.489c-4.658-9.028-3.351-36.305-3.293-37.458l0.624,0.031c-0.022,0.285-1.368,28.26,3.213,37.146
					L271.896,251.489z"/>
			</g>
			<g>
				<path d="M256.544,252.289c-4.264-11.329-2.223-36.225-2.193-36.472l0.606,0.057c-0.02,0.251-2.05,24.999,2.163,36.202
					L256.544,252.289z"/>
			</g>
			<g>
				<path d="M241.074,251.788c-4.768-14.451,1.455-36.506,1.519-36.729l0.587,0.166c-0.061,0.219-6.228,22.101-1.519,36.375
					L241.074,251.788z"/>
			</g>
			<g>
				<path d="M225.597,248.591c-1.691-3.778-1.489-10.789,0.621-20.82c1.556-7.445,3.64-13.883,3.663-13.938l0.58,0.189
					c-0.076,0.248-8.229,25.557-4.301,34.31L225.597,248.591z"/>
			</g>
			<g>
				<path d="M264.989,233.354c-20.484,0-35.658-2.788-44.951-5.2c-10.633-2.767-16.094-5.654-16.146-5.686l0.293-0.537
					c0.052,0.028,5.464,2.887,16.033,5.632c9.763,2.527,26.034,5.478,48.164,5.15c42.337-0.627,67.682-20.436,67.929-20.634
					l0.385,0.482c-0.25,0.196-25.766,20.128-68.299,20.768C267.238,233.346,266.108,233.354,264.989,233.354z"/>
			</g>
			<g>
				<path d="M255.952,148.406c0,0-5.757-21.503-15.588-21.104c-9.837,0.395-12.028,20.131-4.172,28.277
					c-14.438,2.193-24.174,34.468-26.986,35.744c-5.44,2.468-32.136,8.396-29.416,35.914c2.249,22.796,38.2,56.648,94.688,45.725
					c56.482-10.927,77.013-34.732,75.735-54.466c-1.273-19.731-18.555-31.278-31.224-30.092c-18.09,1.677-17.121,1.217-17.121,1.217
					s-0.264-24.47-16.898-30.318c-1.734-0.604-6.573-2.77-6.573-2.77s2.755-23.76-4.444-29.893
					C266.746,120.512,256.208,138.969,255.952,148.406z"/>
			</g>
			<g>
				<path d="M271.278,178.356c0.423,2.795,3.031,4.728,5.825,4.312c2.795-0.42,4.73-3.024,4.313-5.819
					c-0.417-2.807-3.02-4.73-5.82-4.312C272.803,172.95,270.87,175.549,271.278,178.356z"/>
			</g>
			<g>
				<path d="M242.812,181.347c0.408,2.795,3.019,4.73,5.814,4.308c2.8-0.411,4.729-3.02,4.318-5.814
					c-0.42-2.801-3.022-4.728-5.819-4.316C244.324,175.94,242.392,178.549,242.812,181.347z"/>
			</g>
			<g>
				<path d="M259.668,197.018c0.419,2.801,3.018,4.728,5.819,4.313c2.795-0.42,4.73-3.025,4.312-5.82
					c-0.411-2.797-2.662-2.289-5.457-1.872C261.541,194.051,259.248,194.217,259.668,197.018z"/>
			</g>
			<g>
				<path d="M329.534,210.572c0,0-2.854-10.777-15.334-8.926c-12.491,1.863-26.987,7.75-42.137,9.072
					c-15.154,1.32-34.385,3.868-45.242,2.054c-10.846-1.803-25.243-4.331-28.927,4.304c-3.701,8.649,1.768,34.914,51.961,33.364
					c50.199-1.554,60.79-7.793,69.158-14.329C327.378,229.576,333.215,222.793,329.534,210.572z"/>
			</g>
			<g>
				<path d="M281.247,195.864c-0.37,0-0.727-0.161-0.972-0.469c-0.423-0.54-0.328-1.311,0.213-1.728
					c3.746-2.928,12.591-4.429,19.346-5.173c0.221-0.023,0.38-0.047,0.452-0.052c0.664-0.099,1.287,0.367,1.386,1.046
					c0.095,0.67-0.38,1.289-1.044,1.387c-0.081,0.012-0.263,0.035-0.529,0.06c-12.284,1.355-16.611,3.506-18.101,4.673
					C281.773,195.778,281.509,195.864,281.247,195.864z"/>
			</g>
			<g>
				<path d="M237.602,197.88c-0.173,0-0.343-0.046-0.501-0.155c-0.157-0.095-15.949-10.129-30.157-3.52
					c-0.463,0.219-1.019,0.018-1.225-0.448c-0.222-0.457-0.021-1.007,0.442-1.219c15.147-7.051,31.265,3.202,31.945,3.643
					c0.426,0.278,0.55,0.849,0.269,1.276C238.202,197.725,237.906,197.88,237.602,197.88z"/>
			</g>
			<g>
				<path d="M319.315,236.144l-0.616-0.061c1.662-17.685-8.425-33.44-8.525-33.594l0.512-0.342
					C310.789,202.308,320.988,218.244,319.315,236.144z"/>
			</g>
			<g>
				<path d="M305.39,243.726l-0.604-0.103c3.103-18.214-7.715-37.721-7.82-37.916l0.537-0.299
					C297.611,205.609,308.538,225.301,305.39,243.726z"/>
			</g>
			<g>
				<path d="M291.949,245.751l-0.592-0.156c1.863-6.981-5.472-36.828-5.55-37.133l0.599-0.152
					C286.708,209.552,293.858,238.619,291.949,245.751z"/>
			</g>
			<g>
				<path d="M279.162,247.545c-1.446-7.391-5.457-36.69-5.498-36.984l0.607-0.086c0.044,0.293,4.049,29.582,5.498,36.949
					L279.162,247.545z"/>
			</g>
			<g>
				<path d="M264.917,249.747c-4.648-9.034-3.341-36.294-3.277-37.455l0.607,0.034c-0.006,0.273-1.364,28.254,3.22,37.142
					L264.917,249.747z"/>
			</g>
			<g>
				<path d="M249.574,250.552c-4.264-11.332-2.223-36.224-2.196-36.475l0.609,0.049c-0.025,0.25-2.056,24.999,2.16,36.205
					L249.574,250.552z"/>
			</g>
			<g>
				<path d="M234.099,250.049c-4.765-14.454,1.455-36.512,1.519-36.733l0.59,0.173c-0.063,0.215-6.231,22.101-1.521,36.365
					L234.099,250.049z"/>
			</g>
			<g>
				<path d="M218.63,246.849c-1.703-3.778-1.487-10.783,0.611-20.817c1.567-7.448,3.641-13.877,3.67-13.946l0.574,0.192
					c-0.077,0.256-8.226,25.56-4.296,34.318L218.63,246.849z"/>
			</g>
			<g>
				<path d="M258.017,231.608c-20.481,0-35.661-2.791-44.954-5.204c-10.628-2.761-16.082-5.65-16.137-5.67l0.284-0.546
					c0.061,0.022,5.469,2.883,16.039,5.626c9.76,2.533,26.028,5.483,48.164,5.156c42.331-0.633,67.679-20.438,67.925-20.635
					l0.383,0.483c-0.253,0.199-25.76,20.131-68.297,20.767C260.269,231.597,259.132,231.608,258.017,231.608z"/>
			</g>
		</g>
		<g>
			<g>
				<polygon fill="#00A79D" points="417.036,303.831 83.708,303.831 60.334,76.917 436.71,79.117 				"/>
			</g>
			<g>
				<polygon fill="#00DDC7" points="392.73,287.467 107.479,287.467 87.479,93.284 409.565,95.162 				"/>
			</g>
			<g>
				<polygon fill="#00A79D" points="450.046,391.204 55.417,391.204 83.708,303.831 417.036,303.831 				"/>
			</g>
			<g opacity="0.2">
				<polygon fill="#414042" points="134.212,333.83 99.958,333.83 105.99,315.194 134.028,315.194 				"/>
			</g>
			<g opacity="0.2">
				<polygon fill="#414042" points="176.648,333.83 142.396,333.83 148.429,315.194 176.456,315.194 				"/>
			</g>
			<g opacity="0.2">
				<polygon fill="#414042" points="219.08,333.83 184.826,333.83 190.853,315.194 218.896,315.194 				"/>
			</g>
			<g opacity="0.2">
				<polygon fill="#414042" points="261.52,333.83 227.258,333.83 233.291,315.194 261.323,315.194 				"/>
			</g>
			<g opacity="0.2">
				<polygon fill="#414042" points="303.946,333.83 269.688,333.83 275.721,315.194 303.756,315.194 				"/>
			</g>
			<g opacity="0.2">
				<polygon fill="#414042" points="346.388,333.83 312.126,333.83 318.159,315.194 346.191,315.194 				"/>
			</g>
			<g opacity="0.2">
				<polygon fill="#414042" points="388.811,333.83 354.556,333.83 360.586,315.194 388.624,315.194 				"/>
			</g>
			<g opacity="0.2">
				<polygon fill="#414042" points="134.212,362.921 99.958,362.921 105.99,344.288 134.028,344.288 				"/>
			</g>
			<g opacity="0.2">
				<polygon fill="#414042" points="176.648,362.921 142.396,362.921 148.429,344.288 176.456,344.288 				"/>
			</g>
			<g opacity="0.2">
				<polygon fill="#414042" points="219.08,362.921 184.826,362.921 190.853,344.288 218.896,344.288 				"/>
			</g>
			<g opacity="0.2">
				<polygon fill="#414042" points="261.52,362.921 227.258,362.921 233.291,344.288 261.323,344.288 				"/>
			</g>
			<g opacity="0.2">
				<polygon fill="#414042" points="303.946,362.921 269.688,362.921 275.721,344.288 303.756,344.288 				"/>
			</g>
			<g opacity="0.2">
				<polygon fill="#414042" points="346.388,362.921 312.126,362.921 318.159,344.288 346.191,344.288 				"/>
			</g>
			<g opacity="0.2">
				<polygon fill="#414042" points="388.811,362.921 354.556,362.921 360.586,344.288 388.624,344.288 				"/>
			</g>
			<g>
				<rect x="55.417" y="391.204" fill="#009385" width="394.628" height="20.915"/>
			</g>
			<g>
				<g opacity="0.1">
					<g>
						<path d="M250.722,137.947c0,0-5.753-21.502-15.593-21.107c-9.832,0.396-12.023,20.137-4.161,28.281
							c-14.446,2.191-24.18,34.465-26.991,35.748c-5.44,2.461-32.133,8.396-29.413,35.911c2.246,22.799,38.2,56.646,94.682,45.723
							c56.481-10.927,77.021-34.732,75.742-54.464c-1.274-19.736-18.556-31.276-31.23-30.091
							c-18.084,1.679-17.114,1.214-17.114,1.214s-0.279-24.468-16.904-30.319c-1.726-0.604-6.568-2.766-6.568-2.766
							s2.752-23.757-4.448-29.896C261.52,110.047,250.978,128.508,250.722,137.947z"/>
					</g>
					<g>
						<path d="M266.054,167.897c0.417,2.798,3.019,4.725,5.822,4.309c2.799-0.417,4.728-3.02,4.315-5.817
							c-0.425-2.804-3.023-4.73-5.822-4.308C267.574,162.489,265.639,165.095,266.054,167.897z"/>
					</g>
					<g>
						<path d="M237.578,170.886c0.417,2.794,3.025,4.727,5.82,4.31c2.8-0.416,4.727-3.021,4.318-5.816
							c-0.42-2.795-3.025-4.728-5.825-4.311C239.097,165.486,237.161,168.091,237.578,170.886z"/>
					</g>
					<g>
						<path d="M254.437,186.562c0.42,2.798,3.022,4.725,5.823,4.308c2.794-0.414,4.729-3.02,4.312-5.817
							c-0.42-2.804-2.663-2.285-5.454-1.878C256.312,183.596,254.017,183.756,254.437,186.562z"/>
					</g>
					<g>
						<path d="M324.301,200.117c0,0-2.847-10.782-15.335-8.925c-12.484,1.852-26.974,7.746-42.136,9.063
							c-15.148,1.322-34.382,3.869-45.236,2.058c-10.853-1.806-25.244-4.333-28.93,4.302c-3.695,8.649,1.766,34.917,51.959,33.367
							c50.208-1.553,60.787-7.795,69.16-14.332C322.147,219.116,327.987,212.332,324.301,200.117z"/>
					</g>
					<g>
						<path d="M276.014,185.406c-0.368,0-0.733-0.16-0.969-0.477c-0.414-0.532-0.322-1.307,0.213-1.727
							c3.744-2.923,12.586-4.428,19.349-5.17c0.225-0.021,0.382-0.045,0.445-0.057c0.67-0.086,1.297,0.38,1.389,1.053
							c0.096,0.673-0.373,1.29-1.043,1.386c-0.081,0.012-0.265,0.028-0.524,0.063c-12.286,1.351-16.613,3.502-18.103,4.669
							C276.548,185.32,276.281,185.406,276.014,185.406z"/>
					</g>
					<g>
						<path d="M232.371,187.42c-0.164,0-0.343-0.047-0.501-0.15c-0.155-0.1-15.952-10.136-30.163-3.52
							c-0.457,0.211-1.006,0.012-1.225-0.451c-0.216-0.457-0.012-1.009,0.451-1.228c15.146-7.051,31.262,3.212,31.946,3.652
							c0.423,0.275,0.552,0.848,0.271,1.273C232.972,187.27,232.676,187.42,232.371,187.42z"/>
					</g>
					<g>
						<path d="M314.085,225.68l-0.609-0.06c1.652-17.682-8.428-33.438-8.532-33.592l0.516-0.333
							C305.559,191.848,315.758,207.783,314.085,225.68z"/>
					</g>
					<g>
						<path d="M300.162,233.266l-0.606-0.102c3.107-18.215-7.706-37.72-7.822-37.911l0.539-0.302
							C292.381,195.148,303.301,214.842,300.162,233.266z"/>
					</g>
					<g>
						<path d="M286.726,235.289l-0.599-0.16c1.866-6.976-5.473-36.826-5.545-37.125l0.591-0.153
							C281.48,199.088,288.632,228.164,286.726,235.289z"/>
					</g>
					<g>
						<path d="M273.936,237.086c-1.452-7.397-5.461-36.687-5.498-36.986l0.606-0.083c0.037,0.297,4.043,29.58,5.492,36.946
							L273.936,237.086z"/>
					</g>
					<g>
						<path d="M259.693,239.289c-4.656-9.04-3.347-36.303-3.289-37.458l0.615,0.029c-0.021,0.287-1.36,28.256,3.214,37.144
							L259.693,239.289z"/>
					</g>
					<g>
						<path d="M244.335,240.091c-4.255-11.334-2.211-36.224-2.194-36.477l0.613,0.057c-0.017,0.248-2.051,24.999,2.156,36.202
							L244.335,240.091z"/>
					</g>
					<g>
						<path d="M228.872,239.585c-4.768-14.445,1.452-36.506,1.515-36.725l0.596,0.167c-0.063,0.213-6.237,22.098-1.53,36.368
							L228.872,239.585z"/>
					</g>
					<g>
						<path d="M213.396,236.388c-1.695-3.775-1.486-10.782,0.618-20.823c1.562-7.442,3.641-13.877,3.657-13.938l0.597,0.193
							c-0.084,0.252-8.236,25.562-4.306,34.314L213.396,236.388z"/>
					</g>
					<g>
						<path d="M252.789,221.154c-20.481,0-35.658-2.796-44.954-5.214c-10.628-2.758-16.091-5.65-16.14-5.674l0.285-0.54
							c0.058,0.029,5.471,2.885,16.04,5.631c9.765,2.53,26.028,5.48,48.165,5.155c42.336-0.63,67.676-20.441,67.933-20.64l0.38,0.48
							c-0.254,0.206-25.768,20.14-68.31,20.771C255.037,221.143,253.907,221.154,252.789,221.154z"/>
					</g>
				</g>
				<g>
					<g>
						<g>
							<path fill="#E28FD8" d="M243.755,136.202c0,0-5.76-21.5-15.599-21.105c-9.829,0.396-12.021,20.136-4.167,28.279
								c-14.438,2.194-24.168,34.468-26.986,35.745c-5.443,2.47-32.136,8.402-29.416,35.92c2.246,22.79,38.207,56.643,94.69,45.719
								c56.479-10.927,77.013-34.729,75.739-54.466c-1.279-19.731-18.562-31.273-31.235-30.094
								c-18.081,1.679-17.114,1.216-17.114,1.216s-0.271-24.47-16.902-30.321c-1.728-0.598-6.573-2.761-6.573-2.761
								s2.758-23.762-4.445-29.893C254.544,108.305,244.002,126.765,243.755,136.202z"/>
						</g>
					</g>
					<g>
						<g>
							<path fill="#414042" d="M259.08,166.152c0.417,2.802,3.02,4.733,5.823,4.313c2.795-0.42,4.724-3.019,4.313-5.814
								c-0.417-2.809-3.028-4.735-5.823-4.318C260.599,160.753,258.663,163.353,259.08,166.152z"/>
						</g>
					</g>
					<g>
						<g>
							<path fill="#414042" d="M230.603,169.144c0.42,2.794,3.028,4.727,5.822,4.307c2.804-0.408,4.728-3.014,4.316-5.813
								c-0.42-2.802-3.019-4.728-5.823-4.313C232.124,163.74,230.188,166.342,230.603,169.144z"/>
						</g>
					</g>
					<g>
						<g>
							<path fill="#414042" d="M247.464,184.814c0.417,2.798,3.02,4.729,5.822,4.312c2.795-0.419,4.73-3.025,4.311-5.813
								c-0.42-2.801-2.659-2.295-5.455-1.881C249.339,181.85,247.044,182.02,247.464,184.814z"/>
						</g>
					</g>
					<g>
						<g>
							<path fill="#FFFFFF" d="M317.334,198.375c0,0-2.853-10.779-15.341-8.925c-12.488,1.854-26.977,7.745-42.131,9.068
								c-15.159,1.317-34.387,3.864-45.238,2.059c-10.858-1.812-25.244-4.345-28.936,4.302c-3.695,8.638,1.766,34.908,51.974,33.36
								c50.19-1.553,60.771-7.795,69.142-14.331C315.172,217.372,321.018,210.59,317.334,198.375z"/>
						</g>
					</g>
					<g>
						<path fill="#E580CF" d="M269.044,183.661c-0.371,0-0.728-0.163-0.969-0.475c-0.42-0.528-0.327-1.312,0.207-1.72
							c3.752-2.93,12.589-4.434,19.349-5.182c0.222-0.016,0.379-0.039,0.445-0.045c0.676-0.098,1.3,0.373,1.389,1.046
							c0.096,0.668-0.374,1.294-1.044,1.387c-0.083,0.017-0.261,0.037-0.525,0.063c-12.278,1.351-16.617,3.504-18.096,4.663
							C269.573,183.578,269.306,183.661,269.044,183.661z"/>
					</g>
					<g>
						<path fill="#E580CF" d="M225.395,185.674c-0.163,0-0.342-0.049-0.499-0.146c-0.153-0.098-15.945-10.139-30.161-3.52
							c-0.457,0.213-1.007,0.012-1.22-0.451c-0.221-0.463-0.02-1.004,0.443-1.226c15.146-7.051,31.268,3.207,31.943,3.644
							c0.429,0.278,0.549,0.852,0.272,1.282C225.996,185.527,225.705,185.674,225.395,185.674z"/>
					</g>
					<g>
						<path fill="#231F20" d="M307.114,223.935l-0.615-0.055c1.656-17.681-8.425-33.438-8.531-33.597l0.523-0.334
							C298.589,190.111,308.79,206.046,307.114,223.935z"/>
					</g>
					<g>
						<path fill="#231F20" d="M279.749,233.547l-0.596-0.154c1.86-6.982-5.469-36.829-5.543-37.137l0.589-0.142
							C274.51,197.346,281.656,226.421,279.749,233.547z"/>
					</g>
					<g>
						<path fill="#231F20" d="M252.718,237.544c-4.656-9.034-3.348-36.3-3.287-37.45l0.606,0.023
							c-0.008,0.282-1.351,28.257,3.221,37.145L252.718,237.544z"/>
					</g>
					<g>
						<path fill="#231F20" d="M226.919,237.849c-4.768-14.454,1.458-36.518,1.521-36.734l0.589,0.165
							c-0.066,0.224-6.231,22.106-1.53,36.374L226.919,237.849z"/>
					</g>
					<g>
						<path fill="#231F20" d="M206.423,234.646c-1.693-3.781-1.489-10.782,0.618-20.824c1.559-7.441,3.643-13.87,3.657-13.939
							l0.59,0.189c-0.08,0.262-8.229,25.565-4.305,34.324L206.423,234.646z"/>
					</g>
					<g>
						<path fill="#231F20" d="M245.812,219.406c-20.481,0-35.654-2.79-44.948-5.202c-10.633-2.77-16.093-5.65-16.145-5.68
							l0.285-0.54c0.058,0.029,5.472,2.881,16.042,5.631c9.762,2.533,26.028,5.479,48.163,5.148
							c42.339-0.629,67.676-20.436,67.93-20.633l0.383,0.485c-0.257,0.198-25.768,20.135-68.31,20.764
							C248.062,219.4,246.935,219.406,245.812,219.406z"/>
					</g>
				</g>
			</g>
		</g>
	</g>
	<g>
		<g opacity="0.2">
			<g>
				<polygon points="38.615,244.296 161.339,162.654 135.722,307.811 109.156,265.616 72.43,321.776 52.706,308.871 89.891,252.019 
									"/>
			</g>
		</g>
		<g>
			<g>
				<polygon fill="#FFFFFF" points="32.938,235.787 155.663,154.14 130.049,299.303 103.486,257.103 66.757,313.265 47.029,300.363 
					84.214,243.508 				"/>
			</g>
		</g>
	</g>
	<g>
		<g opacity="0.2">
			<g>
				<path d="M454.258,283.981c0-26.811-10.912-48.548-24.383-48.548c-4.052,0-7.882,1.978-11.246,5.469
					c-1.158-5.383-5.943-9.415-11.675-9.415c-4.867,0-9.054,2.923-10.917,7.108c-1.858-4.186-6.041-7.108-10.915-7.108
					c-5.535,0-10.196,3.773-11.548,8.886l-13.275-44.586c-1.89-6.32-8.417-9.443-14.861-8.034
					c-9.037,1.973-12.286,11.691-10.399,18.012l18.733,63.038l-17.215-18.84c-5.48-5.069-14.027-4.736-19.091,0.738
					c-5.065,5.479-4.735,14.027,0.742,19.088l43.91,53.759c3.049,2.82,18.569,9.434,32.61,13.802l12.132,10.297
					c13.969-0.756,26.215-7.62,34.28-17.611C449.804,323.605,454.258,305.418,454.258,283.981z"/>
			</g>
			<g>
				<path d="M410.575,347.646c0,0-24.801,2.875-48.457-19.167c-28.604-26.653-41.501-52.367-46.383-61.748"/>
			</g>
			<g>
				<path d="M439.286,302.854c-0.293,3.646-3.281,6.153-6.292,5.621l0,0c-3.007-0.529-4.991-3.438-4.741-6.513
					c0.513-6.355,0.018-12.77-1.473-18.958c-0.722-3.005,0.785-6.185,3.678-7.177l0,0c2.893-0.98,6.231,1.032,7.089,4.589
					C439.042,288.048,439.588,295.084,439.286,302.854z"/>
			</g>
			<g>
				<path d="M423.003,304.742c-0.294,3.646-3.283,6.151-6.292,5.624l0,0c-3.01-0.528-4.986-3.436-4.738-6.521
					c0.515-6.344,0.018-12.768-1.472-18.952c-0.72-3.005,0.779-6.185,3.678-7.169l0,0c2.89-0.992,6.228,1.026,7.081,4.584
					C422.755,289.942,423.299,296.968,423.003,304.742z"/>
			</g>
			<g>
				<path d="M406.012,306.686c-0.29,3.644-3.283,6.151-6.289,5.619l0,0c-3.011-0.523-4.988-3.434-4.735-6.516
					c0.51-6.344,0.009-12.764-1.476-18.952c-0.721-3.004,0.783-6.188,3.676-7.174l0,0c2.89-0.989,6.23,1.029,7.085,4.587
					C405.765,291.881,406.311,298.91,406.012,306.686z"/>
			</g>
			<g>
				<path d="M466.787,333.963c3.165,10.63-4.912,20.62-15.114,22.896c-27.003,5.747-54.005,8.074-81.599,7.021
					c-10.437-0.503-20.099-8.956-18.805-19.978l0,0c1.26-9.998,10.748-17.144,20.61-16.673c24.27,0.9,47.997-1.136,71.757-6.173
					C453.278,318.907,463.848,324.321,466.787,333.963L466.787,333.963z"/>
			</g>
		</g>
		<g>
			<g>
				<path fill="#FFFFFF" d="M448.52,278.234c0-26.809-10.921-48.546-24.387-48.546c-4.054,0-7.885,1.978-11.246,5.462
					c-1.162-5.376-5.946-9.404-11.674-9.404c-4.869,0-9.061,2.921-10.918,7.1c-1.857-4.179-6.048-7.1-10.918-7.1
					c-5.538,0-10.196,3.77-11.548,8.885l-13.279-44.589c-1.886-6.317-8.416-9.442-14.854-8.034
					c-9.04,1.973-12.292,11.694-10.407,18.011l18.739,63.041l-17.218-18.842c-5.478-5.072-14.028-4.738-19.093,0.739
					c-5.066,5.478-4.736,14.022,0.744,19.087l43.912,53.759c3.044,2.82,18.569,9.434,32.61,13.805l12.133,10.294
					c13.967-0.757,26.21-7.62,34.275-17.609C444.06,317.857,448.52,299.674,448.52,278.234z"/>
			</g>
			<g>
				<path fill="#FFFFFF" d="M404.827,341.901c0,0-24.792,2.872-48.453-19.162c-28.607-26.658-41.499-52.376-46.382-61.752"/>
			</g>
			<g>
				<g>
					<path fill="#BCBEC0" d="M433.538,297.105c-0.29,3.646-3.277,6.153-6.285,5.624l0,0c-3.014-0.528-4.989-3.438-4.745-6.516
						c0.519-6.354,0.018-12.767-1.466-18.954c-0.728-3.008,0.776-6.186,3.672-7.169l0,0c2.89-0.992,6.233,1.024,7.085,4.581
						C433.293,282.309,433.84,289.336,433.538,297.105z"/>
				</g>
			</g>
			<g>
				<g>
					<path fill="#BCBEC0" d="M412.755,298.997c-0.297,3.644-3.28,6.154-6.291,5.622l0,0c-3.011-0.527-4.99-3.437-4.745-6.513
						c0.518-6.35,0.023-12.771-1.466-18.962c-0.722-3.001,0.782-6.179,3.672-7.168l0,0c2.893-0.985,6.233,1.029,7.087,4.583
						C412.507,284.195,413.054,291.225,412.755,298.997z"/>
				</g>
			</g>
			<g>
				<g>
					<path fill="#BCBEC0" d="M392.765,300.938c-0.299,3.648-3.284,6.153-6.295,5.621l0,0c-3.013-0.526-4.988-3.437-4.735-6.519
						c0.512-6.34,0.015-12.762-1.476-18.952c-0.719-3.005,0.788-6.182,3.678-7.174l0,0c2.885-0.983,6.229,1.032,7.083,4.586
						C392.515,286.139,393.061,293.169,392.765,300.938z"/>
				</g>
			</g>
			<g>
				<g>
					<path fill="#FFFFFF" d="M461.045,328.215c3.165,10.639-4.918,20.622-15.113,22.899c-27.003,5.745-54.013,8.071-81.602,7.024
						c-10.433-0.509-20.103-8.96-18.803-19.984l0,0c1.26-9.994,10.743-17.14,20.605-16.668c24.28,0.903,47.996-1.136,71.759-6.177
						C447.53,313.162,458.101,318.573,461.045,328.215L461.045,328.215z"/>
				</g>
			</g>
		</g>
	</g>
</g>
<g>
	<g>
		<path fill="#7F3F98" d="M502.829-397.763c0,9.717-7.875,17.592-17.593,17.592H352.76c-9.713,0-17.589-7.875-17.589-17.592
			v-132.476c0-9.714,7.876-17.59,17.589-17.59h132.477c9.718,0,17.593,7.876,17.593,17.59V-397.763z"/>
	</g>
	<g>
		<g opacity="0.2">
			<g>
				<polygon points="479.874,-441.574 366.668,-441.574 358.731,-518.64 486.557,-517.891 				"/>
			</g>
			<g>
				<polygon points="471.621,-447.133 374.741,-447.133 367.95,-513.082 477.338,-512.441 				"/>
			</g>
			<g>
				<polygon points="491.085,-411.898 357.061,-411.898 366.668,-441.574 479.874,-441.574 				"/>
			</g>
			<g opacity="0.2">
				<polygon points="383.821,-431.384 372.188,-431.384 374.236,-437.713 383.759,-437.713 				"/>
			</g>
			<g opacity="0.2">
				<polygon points="398.234,-431.384 386.598,-431.384 388.646,-437.713 398.168,-437.713 				"/>
			</g>
			<g opacity="0.2">
				<polygon points="412.643,-431.384 401.01,-431.384 403.058,-437.713 412.58,-437.713 				"/>
			</g>
			<g opacity="0.2">
				<polygon points="427.056,-431.384 415.419,-431.384 417.469,-437.713 426.992,-437.713 				"/>
			</g>
			<g opacity="0.2">
				<polygon points="441.466,-431.384 429.832,-431.384 431.881,-437.713 441.401,-437.713 				"/>
			</g>
			<g opacity="0.2">
				<polygon points="455.877,-431.384 444.242,-431.384 446.292,-437.713 455.813,-437.713 				"/>
			</g>
			<g opacity="0.2">
				<polygon points="470.288,-431.384 458.653,-431.384 460.702,-437.713 470.223,-437.713 				"/>
			</g>
			<g opacity="0.2">
				<polygon points="383.821,-421.503 372.188,-421.503 374.236,-427.832 383.759,-427.832 				"/>
			</g>
			<g opacity="0.2">
				<polygon points="398.234,-421.503 386.598,-421.503 388.646,-427.832 398.168,-427.832 				"/>
			</g>
			<g opacity="0.2">
				<polygon points="412.643,-421.503 401.01,-421.503 403.058,-427.832 412.58,-427.832 				"/>
			</g>
			<g opacity="0.2">
				<polygon points="427.056,-421.503 415.419,-421.503 417.469,-427.832 426.992,-427.832 				"/>
			</g>
			<g opacity="0.2">
				<polygon points="441.466,-421.503 429.832,-421.503 431.881,-427.832 441.401,-427.832 				"/>
			</g>
			<g opacity="0.2">
				<polygon points="455.877,-421.503 444.242,-421.503 446.292,-427.832 455.813,-427.832 				"/>
			</g>
			<g opacity="0.2">
				<polygon points="470.288,-421.503 458.653,-421.503 460.702,-427.832 470.223,-427.832 				"/>
			</g>
			<g>
				<rect x="357.061" y="-411.898" width="134.024" height="7.102"/>
			</g>
			<g>
				<path d="M423.391-497.912c0,0-1.955-7.304-5.295-7.167c-3.34,0.133-4.084,6.837-1.416,9.604
					c-4.903,0.747-8.21,11.706-9.166,12.14c-1.847,0.837-10.914,2.852-9.989,12.198c0.762,7.741,12.974,19.238,32.157,15.526
					c19.183-3.71,26.156-11.795,25.724-18.496c-0.433-6.702-6.303-10.622-10.605-10.222c-6.145,0.571-5.815,0.414-5.815,0.414
					s-0.091-8.311-5.741-10.296c-0.586-0.207-2.229-0.938-2.229-0.938s0.935-8.069-1.511-10.153
					C427.056-507.386,423.478-501.118,423.391-497.912z"/>
			</g>
			<g>
				<circle cx="430.318" cy="-487.995" r="1.74"/>
			</g>
			<g>
				<circle cx="420.647" cy="-486.981" r="1.739"/>
			</g>
			<g>
				<path d="M424.651-481.4c0.142,0.95,1.027,1.604,1.979,1.462c0.948-0.14,1.604-1.024,1.462-1.974
					c-0.14-0.953-0.902-0.779-1.853-0.638C425.29-482.408,424.509-482.353,424.651-481.4z"/>
			</g>
			<g>
				<path d="M448.38-476.797c0,0-0.968-3.661-5.21-3.032c-4.24,0.632-9.161,2.632-14.309,3.079
					c-5.146,0.451-11.679,1.316-15.364,0.7c-3.687-0.616-8.57-1.475-9.825,1.461c-1.256,2.936,0.602,11.858,17.649,11.329
					c17.047-0.525,20.644-2.647,23.483-4.867C447.647-470.346,449.631-472.648,448.38-476.797z"/>
			</g>
			<g>
				<path d="M431.979-481.792c-0.126,0-0.247-0.056-0.33-0.162c-0.141-0.182-0.109-0.445,0.073-0.587
					c1.273-0.994,4.275-1.503,6.569-1.756c0.076-0.009,0.13-0.013,0.154-0.016c0.226-0.033,0.438,0.125,0.471,0.354
					c0.032,0.229-0.128,0.439-0.354,0.472c-0.027,0.002-0.09,0.009-0.178,0.019c-4.172,0.461-5.642,1.193-6.148,1.585
					C432.161-481.824,432.068-481.792,431.979-481.792z"/>
			</g>
			<g>
				<path d="M417.158-481.11c-0.059,0-0.116-0.016-0.17-0.051c-0.054-0.036-5.417-3.443-10.244-1.196
					c-0.157,0.072-0.344,0.005-0.416-0.152c-0.073-0.156-0.005-0.344,0.151-0.415c5.146-2.395,10.618,1.089,10.85,1.239
					c0.146,0.093,0.188,0.288,0.092,0.432C417.361-481.161,417.262-481.11,417.158-481.11z"/>
			</g>
			<g>
				<path d="M444.909-468.117l-0.205-0.017c0.56-6.007-2.864-11.357-2.901-11.411l0.178-0.113
					C442.015-479.605,445.479-474.193,444.909-468.117z"/>
			</g>
			<g>
				<path d="M440.182-465.541l-0.206-0.034c1.056-6.186-2.619-12.81-2.656-12.875l0.181-0.103
					C437.539-478.486,441.249-471.795,440.182-465.541z"/>
			</g>
			<g>
				<path d="M435.617-464.85l-0.203-0.056c0.635-2.368-1.858-12.508-1.885-12.608l0.203-0.051
					C433.836-477.147,436.263-467.273,435.617-464.85z"/>
			</g>
			<g>
				<path d="M431.272-464.243c-0.49-2.51-1.854-12.46-1.867-12.56l0.207-0.029c0.015,0.101,1.375,10.045,1.865,12.548
					L431.272-464.243z"/>
			</g>
			<g>
				<path d="M426.437-463.494c-1.582-3.067-1.138-12.33-1.118-12.722l0.212,0.011c-0.008,0.097-0.465,9.598,1.091,12.615
					L426.437-463.494z"/>
			</g>
			<g>
				<path d="M421.223-463.222c-1.448-3.848-0.755-12.303-0.745-12.387l0.206,0.02c-0.007,0.084-0.696,8.49,0.734,12.294
					L421.223-463.222z"/>
			</g>
			<g>
				<path d="M415.969-463.392c-1.619-4.908,0.494-12.399,0.516-12.475l0.199,0.056c-0.021,0.075-2.115,7.507-0.516,12.354
					L415.969-463.392z"/>
			</g>
			<g>
				<path d="M410.712-464.478c-0.574-1.284-0.506-3.664,0.211-7.072c0.528-2.529,1.236-4.715,1.244-4.733l0.197,0.064
					c-0.026,0.084-2.795,8.68-1.461,11.653L410.712-464.478z"/>
			</g>
			<g>
				<path d="M424.091-469.653c-6.957,0-12.11-0.947-15.267-1.767c-3.611-0.939-5.466-1.92-5.483-1.93l0.1-0.183
					c0.018,0.01,1.855,0.98,5.445,1.914c3.315,0.858,8.842,1.861,16.357,1.75c14.379-0.213,22.986-6.941,23.07-7.009l0.131,0.165
					c-0.085,0.066-8.751,6.836-23.196,7.052C424.854-469.656,424.471-469.653,424.091-469.653z"/>
			</g>
			<g>
				<path d="M421.021-498.504c0,0-1.955-7.302-5.294-7.167c-3.341,0.134-4.085,6.836-1.417,9.604
					c-4.903,0.746-8.21,11.706-9.165,12.14c-1.848,0.837-10.914,2.852-9.99,12.197c0.764,7.742,12.974,19.239,32.158,15.529
					c19.183-3.711,26.155-11.796,25.722-18.498c-0.433-6.701-6.302-10.623-10.604-10.22c-6.144,0.57-5.814,0.413-5.814,0.413
					s-0.09-8.311-5.739-10.296c-0.589-0.206-2.232-0.94-2.232-0.94s0.936-8.069-1.51-10.152
					C424.688-507.978,421.108-501.709,421.021-498.504z"/>
			</g>
			<g>
				<circle cx="427.948" cy="-488.588" r="1.741"/>
			</g>
			<g>
				<circle cx="418.279" cy="-487.572" r="1.74"/>
			</g>
			<g>
				<path d="M422.283-481.994c0.143,0.951,1.025,1.605,1.977,1.465c0.949-0.143,1.606-1.028,1.465-1.977
					c-0.14-0.95-0.904-0.777-1.854-0.636C422.92-483.001,422.141-482.945,422.283-481.994z"/>
			</g>
			<g>
				<path d="M446.012-477.39c0,0-0.97-3.661-5.208-3.031c-4.242,0.632-9.165,2.631-14.311,3.081
					c-5.146,0.448-11.678,1.313-15.365,0.697c-3.684-0.612-8.573-1.471-9.824,1.461c-1.257,2.938,0.601,11.857,17.647,11.332
					c17.049-0.527,20.646-2.646,23.487-4.866C445.279-470.937,447.262-473.24,446.012-477.39z"/>
			</g>
			<g>
				<path d="M429.612-482.386c-0.126,0-0.247-0.055-0.33-0.16c-0.144-0.184-0.111-0.444,0.072-0.586
					c1.272-0.994,4.276-1.504,6.57-1.757c0.075-0.008,0.129-0.015,0.153-0.017c0.226-0.033,0.438,0.125,0.471,0.355
					c0.032,0.228-0.129,0.438-0.354,0.47c-0.027,0.005-0.089,0.012-0.18,0.021c-4.172,0.46-5.642,1.191-6.147,1.586
					C429.791-482.415,429.701-482.386,429.612-482.386z"/>
			</g>
			<g>
				<path d="M414.789-481.701c-0.059,0-0.116-0.017-0.17-0.053c-0.054-0.033-5.417-3.441-10.242-1.195
					c-0.157,0.074-0.346,0.006-0.416-0.153c-0.075-0.155-0.007-0.342,0.15-0.414c5.145-2.395,10.618,1.088,10.85,1.237
					c0.145,0.094,0.187,0.288,0.091,0.434C414.993-481.753,414.893-481.701,414.789-481.701z"/>
			</g>
			<g>
				<path d="M442.541-468.706l-0.209-0.02c0.564-6.007-2.861-11.357-2.896-11.41l0.174-0.116
					C439.646-480.198,443.109-474.785,442.541-468.706z"/>
			</g>
			<g>
				<path d="M437.812-466.131l-0.205-0.035c1.054-6.185-2.62-12.811-2.656-12.877l0.183-0.102
					C435.17-479.077,438.881-472.389,437.812-466.131z"/>
			</g>
			<g>
				<path d="M433.247-465.444l-0.201-0.053c0.633-2.371-1.858-12.507-1.885-12.611l0.203-0.052
					C431.467-477.737,433.896-467.866,433.247-465.444z"/>
			</g>
			<g>
				<path d="M428.904-464.833c-0.491-2.51-1.854-12.461-1.867-12.561l0.206-0.029c0.015,0.1,1.375,10.046,1.867,12.549
					L428.904-464.833z"/>
			</g>
			<g>
				<path d="M424.066-464.085c-1.579-3.069-1.135-12.327-1.113-12.721l0.206,0.011c-0.002,0.093-0.463,9.596,1.094,12.615
					L424.066-464.085z"/>
			</g>
			<g>
				<path d="M418.855-463.813c-1.448-3.848-0.755-12.302-0.746-12.387l0.207,0.017c-0.009,0.084-0.698,8.49,0.733,12.295
					L418.855-463.813z"/>
			</g>
			<g>
				<path d="M413.6-463.983c-1.618-4.909,0.494-12.4,0.516-12.475l0.2,0.059c-0.021,0.073-2.116,7.505-0.517,12.35L413.6-463.983z"
					/>
			</g>
			<g>
				<path d="M408.346-465.071c-0.578-1.283-0.505-3.661,0.208-7.07c0.532-2.529,1.236-4.712,1.246-4.736l0.195,0.065
					c-0.026,0.087-2.794,8.681-1.459,11.656L408.346-465.071z"/>
			</g>
			<g>
				<path d="M421.723-470.246c-6.956,0-12.111-0.949-15.268-1.769c-3.609-0.938-5.462-1.918-5.48-1.926l0.097-0.186
					c0.021,0.008,1.857,0.98,5.447,1.912c3.314,0.86,8.84,1.862,16.357,1.751c14.377-0.215,22.985-6.942,23.069-7.008l0.13,0.164
					c-0.086,0.068-8.749,6.837-23.195,7.053C422.487-470.25,422.102-470.246,421.723-470.246z"/>
			</g>
		</g>
		<g>
			<g>
				<polygon fill="#00A79D" points="475.729,-445.718 362.523,-445.718 354.585,-522.783 482.411,-522.036 				"/>
			</g>
			<g>
				<polygon fill="#00DDC7" points="467.475,-451.275 370.597,-451.275 363.804,-517.225 473.192,-516.587 				"/>
			</g>
			<g>
				<polygon fill="#00A79D" points="486.94,-416.044 352.915,-416.044 362.523,-445.718 475.729,-445.718 				"/>
			</g>
			<g opacity="0.2">
				<polygon fill="#414042" points="379.676,-435.529 368.042,-435.529 370.091,-441.858 379.613,-441.858 				"/>
			</g>
			<g opacity="0.2">
				<polygon fill="#414042" points="394.088,-435.529 382.455,-435.529 384.504,-441.858 394.022,-441.858 				"/>
			</g>
			<g opacity="0.2">
				<polygon fill="#414042" points="408.499,-435.529 396.865,-435.529 398.912,-441.858 408.437,-441.858 				"/>
			</g>
			<g opacity="0.2">
				<polygon fill="#414042" points="422.912,-435.529 411.276,-435.529 413.325,-441.858 422.846,-441.858 				"/>
			</g>
			<g opacity="0.2">
				<polygon fill="#414042" points="437.321,-435.529 425.687,-435.529 427.735,-441.858 437.257,-441.858 				"/>
			</g>
			<g opacity="0.2">
				<polygon fill="#414042" points="451.735,-435.529 440.1,-435.529 442.148,-441.858 451.669,-441.858 				"/>
			</g>
			<g opacity="0.2">
				<polygon fill="#414042" points="466.144,-435.529 454.51,-435.529 456.558,-441.858 466.08,-441.858 				"/>
			</g>
			<g opacity="0.2">
				<polygon fill="#414042" points="379.676,-425.649 368.042,-425.649 370.091,-431.978 379.613,-431.978 				"/>
			</g>
			<g opacity="0.2">
				<polygon fill="#414042" points="394.088,-425.649 382.455,-425.649 384.504,-431.978 394.022,-431.978 				"/>
			</g>
			<g opacity="0.2">
				<polygon fill="#414042" points="408.499,-425.649 396.865,-425.649 398.912,-431.978 408.437,-431.978 				"/>
			</g>
			<g opacity="0.2">
				<polygon fill="#414042" points="422.912,-425.649 411.276,-425.649 413.325,-431.978 422.846,-431.978 				"/>
			</g>
			<g opacity="0.2">
				<polygon fill="#414042" points="437.321,-425.649 425.687,-425.649 427.735,-431.978 437.257,-431.978 				"/>
			</g>
			<g opacity="0.2">
				<polygon fill="#414042" points="451.735,-425.649 440.1,-425.649 442.148,-431.978 451.669,-431.978 				"/>
			</g>
			<g opacity="0.2">
				<polygon fill="#414042" points="466.144,-425.649 454.51,-425.649 456.558,-431.978 466.08,-431.978 				"/>
			</g>
			<g>
				<rect x="352.915" y="-416.044" fill="#009385" width="134.025" height="7.104"/>
			</g>
			<g>
				<g opacity="0.1">
					<g>
						<path d="M419.245-502.056c0,0-1.954-7.303-5.296-7.169c-3.339,0.135-4.083,6.839-1.413,9.605
							c-4.906,0.744-8.212,11.705-9.167,12.14c-1.848,0.836-10.913,2.852-9.989,12.197c0.763,7.743,12.974,19.238,32.156,15.528
							c19.183-3.711,26.158-11.796,25.724-18.497c-0.433-6.703-6.302-10.622-10.606-10.22c-6.142,0.57-5.812,0.412-5.812,0.412
							s-0.095-8.309-5.741-10.296c-0.586-0.206-2.23-0.94-2.23-0.94s0.935-8.069-1.511-10.153
							C422.912-511.532,419.332-505.262,419.245-502.056z"/>
					</g>
					<g>
						<path d="M424.452-491.884c0.142,0.95,1.025,1.604,1.978,1.463c0.95-0.141,1.605-1.025,1.466-1.975
							c-0.145-0.953-1.027-1.607-1.978-1.464C424.969-493.721,424.312-492.836,424.452-491.884z"/>
					</g>
					<g>
						<circle cx="416.503" cy="-491.125" r="1.741"/>
					</g>
					<g>
						<path d="M420.507-485.545c0.143,0.951,1.026,1.605,1.978,1.464c0.949-0.141,1.606-1.026,1.465-1.976
							c-0.143-0.952-0.904-0.777-1.853-0.638C421.144-486.553,420.364-486.499,420.507-485.545z"/>
					</g>
					<g>
						<path d="M444.234-480.942c0,0-0.967-3.662-5.208-3.031c-4.24,0.63-9.161,2.631-14.311,3.078
							c-5.145,0.45-11.677,1.315-15.363,0.7c-3.686-0.613-8.573-1.472-9.825,1.461c-1.255,2.937,0.6,11.858,17.646,11.332
							c17.052-0.527,20.645-2.647,23.488-4.867C443.503-474.489,445.486-476.793,444.234-480.942z"/>
					</g>
					<g>
						<path d="M427.835-485.938c-0.125,0-0.249-0.055-0.329-0.162c-0.141-0.181-0.109-0.443,0.072-0.586
							c1.271-0.993,4.274-1.504,6.571-1.755c0.076-0.008,0.13-0.015,0.151-0.019c0.228-0.03,0.44,0.128,0.472,0.357
							c0.032,0.229-0.127,0.438-0.354,0.471c-0.027,0.003-0.09,0.009-0.178,0.021c-4.173,0.458-5.643,1.19-6.148,1.585
							C428.017-485.966,427.926-485.938,427.835-485.938z"/>
					</g>
					<g>
						<path d="M413.013-485.254c-0.056,0-0.116-0.016-0.17-0.051c-0.053-0.034-5.418-3.442-10.244-1.195
							c-0.155,0.072-0.342,0.004-0.416-0.153c-0.073-0.155-0.004-0.343,0.153-0.417c5.144-2.395,10.617,1.09,10.85,1.24
							c0.144,0.093,0.188,0.288,0.092,0.433C413.217-485.305,413.116-485.254,413.013-485.254z"/>
					</g>
					<g>
						<path d="M440.765-472.26l-0.207-0.02c0.562-6.005-2.862-11.356-2.897-11.408l0.175-0.113
							C437.869-483.75,441.333-478.337,440.765-472.26z"/>
					</g>
					<g>
						<path d="M436.036-469.684l-0.206-0.034c1.056-6.187-2.617-12.811-2.656-12.876l0.183-0.103
							C433.394-482.629,437.103-475.94,436.036-469.684z"/>
					</g>
					<g>
						<path d="M431.473-468.996l-0.203-0.055c0.634-2.369-1.858-12.507-1.883-12.609l0.2-0.052
							C429.691-481.291,432.12-471.416,431.473-468.996z"/>
					</g>
					<g>
						<path d="M427.129-468.386c-0.493-2.512-1.854-12.46-1.867-12.561l0.206-0.029c0.013,0.101,1.373,10.046,1.865,12.548
							L427.129-468.386z"/>
					</g>
					<g>
						<path d="M422.292-467.638c-1.581-3.07-1.137-12.329-1.117-12.722l0.209,0.011c-0.007,0.097-0.462,9.596,1.092,12.615
							L422.292-467.638z"/>
					</g>
					<g>
						<path d="M417.076-467.365c-1.445-3.851-0.751-12.303-0.745-12.39l0.208,0.02c-0.006,0.083-0.696,8.49,0.732,12.295
							L417.076-467.365z"/>
					</g>
					<g>
						<path d="M411.824-467.538c-1.619-4.906,0.493-12.397,0.515-12.472l0.202,0.057c-0.021,0.072-2.118,7.504-0.52,12.351
							L411.824-467.538z"/>
					</g>
					<g>
						<path d="M406.568-468.623c-0.576-1.283-0.505-3.663,0.21-7.073c0.53-2.527,1.236-4.712,1.242-4.733l0.202,0.065
							c-0.028,0.086-2.797,8.682-1.462,11.655L406.568-468.623z"/>
					</g>
					<g>
						<path d="M419.947-473.797c-6.956,0-12.11-0.949-15.268-1.77c-3.609-0.936-5.465-1.918-5.481-1.926l0.097-0.184
							c0.02,0.01,1.858,0.979,5.447,1.913c3.316,0.859,8.84,1.86,16.358,1.75c14.378-0.214,22.984-6.942,23.071-7.01l0.129,0.163
							c-0.086,0.07-8.751,6.84-23.199,7.054C420.711-473.801,420.327-473.797,419.947-473.797z"/>
					</g>
				</g>
				<g>
					<g>
						<g>
							<path fill="#E28FD8" d="M416.879-502.648c0,0-1.956-7.302-5.298-7.168c-3.338,0.135-4.082,6.839-1.415,9.605
								c-4.903,0.746-8.208,11.706-9.165,12.139c-1.849,0.839-10.914,2.854-9.99,12.199c0.763,7.741,12.976,19.238,32.159,15.528
								c19.182-3.711,26.155-11.795,25.723-18.498c-0.435-6.702-6.304-10.622-10.608-10.221c-6.141,0.57-5.812,0.413-5.812,0.413
								s-0.092-8.311-5.74-10.297c-0.587-0.204-2.232-0.938-2.232-0.938s0.937-8.07-1.51-10.152
								C420.543-512.123,416.963-505.854,416.879-502.648z"/>
						</g>
					</g>
					<g>
						<g>
							<path fill="#414042" d="M422.084-492.477c0.142,0.951,1.025,1.607,1.978,1.464c0.949-0.143,1.604-1.025,1.465-1.975
								c-0.142-0.954-1.028-1.608-1.978-1.467C422.6-494.311,421.942-493.428,422.084-492.477z"/>
						</g>
					</g>
					<g>
						<g>
							<circle fill="#414042" cx="414.134" cy="-491.717" r="1.741"/>
						</g>
					</g>
					<g>
						<g>
							<path fill="#414042" d="M418.139-486.138c0.142,0.95,1.025,1.606,1.978,1.465c0.949-0.143,1.606-1.027,1.464-1.975
								c-0.143-0.951-0.903-0.78-1.853-0.639C418.775-487.146,417.996-487.087,418.139-486.138z"/>
						</g>
					</g>
					<g>
						<g>
							<path fill="#FFFFFF" d="M441.868-481.533c0,0-0.969-3.662-5.21-3.032c-4.241,0.63-9.162,2.632-14.309,3.081
								c-5.148,0.447-11.679,1.312-15.364,0.698c-3.688-0.615-8.573-1.475-9.827,1.461c-1.255,2.934,0.6,11.856,17.651,11.331
								c17.046-0.528,20.64-2.648,23.482-4.868C441.134-475.081,443.119-477.385,441.868-481.533z"/>
						</g>
					</g>
					<g>
						<path fill="#E580CF" d="M425.468-486.53c-0.126,0-0.247-0.056-0.329-0.161c-0.143-0.181-0.111-0.446,0.07-0.584
							c1.274-0.996,4.275-1.507,6.571-1.76c0.075-0.006,0.129-0.013,0.151-0.016c0.229-0.033,0.441,0.128,0.472,0.356
							c0.032,0.227-0.127,0.438-0.354,0.47c-0.028,0.006-0.089,0.013-0.179,0.021c-4.17,0.459-5.644,1.191-6.146,1.584
							C425.647-486.559,425.557-486.53,425.468-486.53z"/>
					</g>
					<g>
						<path fill="#E580CF" d="M410.644-485.847c-0.056,0-0.116-0.016-0.17-0.05c-0.052-0.034-5.415-3.443-10.243-1.196
							c-0.155,0.073-0.342,0.005-0.414-0.153c-0.075-0.157-0.007-0.341,0.15-0.416c5.144-2.395,10.619,1.089,10.849,1.237
							c0.146,0.095,0.187,0.29,0.093,0.435C410.848-485.896,410.749-485.847,410.644-485.847z"/>
					</g>
					<g>
						<path fill="#231F20" d="M438.397-472.853l-0.209-0.019c0.562-6.005-2.861-11.356-2.897-11.41l0.178-0.113
							C435.502-484.34,438.967-478.927,438.397-472.853z"/>
					</g>
					<g>
						<path fill="#231F20" d="M429.104-469.588l-0.202-0.052c0.632-2.371-1.857-12.508-1.883-12.612l0.2-0.047
							C427.324-481.883,429.751-472.008,429.104-469.588z"/>
					</g>
					<g>
						<path fill="#231F20" d="M419.923-468.23c-1.581-3.068-1.137-12.328-1.116-12.719l0.206,0.009
							c-0.003,0.096-0.459,9.596,1.094,12.615L419.923-468.23z"/>
					</g>
					<g>
						<path fill="#231F20" d="M411.161-468.126c-1.619-4.91,0.495-12.402,0.517-12.476l0.2,0.056
							c-0.022,0.076-2.116,7.507-0.52,12.353L411.161-468.126z"/>
					</g>
					<g>
						<path fill="#231F20" d="M404.2-469.215c-0.575-1.284-0.506-3.663,0.21-7.072c0.529-2.528,1.237-4.712,1.242-4.735l0.2,0.064
							c-0.027,0.089-2.795,8.683-1.462,11.657L404.2-469.215z"/>
					</g>
					<g>
						<path fill="#231F20" d="M417.578-474.391c-6.956,0-12.109-0.946-15.266-1.766c-3.611-0.94-5.466-1.918-5.483-1.929
							l0.097-0.183c0.02,0.009,1.858,0.979,5.448,1.912c3.315,0.861,8.84,1.862,16.357,1.75c14.379-0.213,22.984-6.94,23.07-7.008
							l0.13,0.165c-0.087,0.067-8.751,6.837-23.199,7.052C418.342-474.393,417.959-474.391,417.578-474.391z"/>
					</g>
				</g>
			</g>
		</g>
	</g>
	<g>
		<g opacity="0.2">
			<g>
				<polygon points="347.209,-465.938 388.889,-493.665 380.188,-444.366 371.166,-458.696 358.693,-439.623 351.994,-444.006 
					364.623,-463.314 				"/>
			</g>
		</g>
		<g>
			<g>
				<polygon fill="#FFFFFF" points="345.281,-468.827 386.961,-496.556 378.262,-447.256 369.24,-461.588 356.766,-442.514 
					350.066,-446.896 362.695,-466.205 				"/>
			</g>
		</g>
	</g>
	<g>
		<g opacity="0.2">
			<g>
				<path d="M488.371-452.459c0-9.105-3.706-16.488-8.281-16.488c-1.376,0-2.677,0.672-3.819,1.857
					c-0.394-1.827-2.019-3.197-3.965-3.197c-1.653,0-3.075,0.992-3.708,2.414c-0.631-1.421-2.052-2.414-3.707-2.414
					c-1.88,0-3.463,1.282-3.922,3.017l-4.509-15.142c-0.642-2.147-2.858-3.207-5.047-2.729c-3.069,0.669-4.173,3.97-3.532,6.117
					l6.362,21.409l-5.847-6.398c-1.861-1.722-4.764-1.608-6.483,0.251c-1.721,1.86-1.608,4.763,0.252,6.482l14.913,18.258
					c1.035,0.958,6.307,3.204,11.075,4.688l4.12,3.497c4.744-0.257,8.903-2.588,11.643-5.981
					C486.858-439.002,488.371-445.179,488.371-452.459z"/>
			</g>
			<g>
				<path d="M473.535-430.837c0,0-8.423,0.977-16.457-6.51c-9.715-9.052-14.095-17.785-15.753-20.971"/>
			</g>
			<g>
				<path d="M483.286-446.05c-0.1,1.238-1.114,2.09-2.137,1.909l0,0c-1.021-0.18-1.695-1.168-1.61-2.212
					c0.174-2.158,0.006-4.337-0.5-6.438c-0.245-1.021,0.267-2.101,1.249-2.438l0,0c0.982-0.333,2.116,0.351,2.407,1.559
					C483.203-451.078,483.389-448.688,483.286-446.05z"/>
			</g>
			<g>
				<path d="M477.756-445.408c-0.1,1.238-1.115,2.089-2.137,1.91l0,0c-1.022-0.18-1.693-1.167-1.609-2.215
					c0.175-2.154,0.006-4.336-0.5-6.437c-0.244-1.021,0.265-2.101,1.249-2.435l0,0c0.981-0.337,2.115,0.349,2.405,1.557
					C477.672-450.435,477.856-448.049,477.756-445.408z"/>
			</g>
			<g>
				<path d="M471.985-444.748c-0.099,1.237-1.115,2.089-2.136,1.908l0,0c-1.022-0.178-1.694-1.166-1.608-2.213
					c0.173-2.154,0.003-4.335-0.501-6.437c-0.245-1.021,0.266-2.102,1.248-2.437l0,0c0.981-0.336,2.116,0.35,2.406,1.558
					C471.901-449.776,472.087-447.389,471.985-444.748z"/>
			</g>
			<g>
				<path d="M492.626-435.484c1.075,3.61-1.668,7.003-5.133,7.776c-9.171,1.952-18.342,2.742-27.713,2.385
					c-3.545-0.171-6.826-3.042-6.387-6.785l0,0c0.428-3.396,3.65-5.822,7-5.662c8.242,0.306,16.301-0.386,24.37-2.097
					C488.038-440.598,491.628-438.759,492.626-435.484L492.626-435.484z"/>
			</g>
		</g>
		<g>
			<g>
				<path fill="#FFFFFF" d="M486.422-454.411c0-9.105-3.709-16.487-8.282-16.487c-1.377,0-2.678,0.672-3.819,1.856
					c-0.395-1.827-2.02-3.195-3.965-3.195c-1.653,0-3.077,0.992-3.708,2.412c-0.631-1.419-2.054-2.412-3.708-2.412
					c-1.881,0-3.463,1.281-3.922,3.018l-4.51-15.143c-0.641-2.146-2.858-3.207-5.045-2.729c-3.07,0.67-4.175,3.972-3.534,6.118
					l6.364,21.41l-5.848-6.399c-1.86-1.723-4.765-1.609-6.484,0.25c-1.721,1.861-1.608,4.763,0.253,6.483l14.913,18.258
					c1.034,0.958,6.307,3.204,11.075,4.688l4.121,3.496c4.743-0.257,8.901-2.588,11.641-5.98
					C484.907-440.954,486.422-447.13,486.422-454.411z"/>
			</g>
			<g>
				<path fill="#FFFFFF" d="M471.583-432.788c0,0-8.42,0.976-16.456-6.508c-9.716-9.054-14.094-17.788-15.752-20.973"/>
			</g>
			<g>
				<g>
					<path fill="#BCBEC0" d="M481.334-448.002c-0.099,1.238-1.113,2.09-2.135,1.91l0,0c-1.023-0.18-1.694-1.168-1.611-2.213
						c0.176-2.158,0.006-4.336-0.498-6.438c-0.247-1.021,0.264-2.101,1.247-2.435l0,0c0.981-0.337,2.117,0.348,2.406,1.556
						C481.251-453.027,481.437-450.641,481.334-448.002z"/>
				</g>
			</g>
			<g>
				<g>
					<path fill="#BCBEC0" d="M474.275-447.359c-0.101,1.237-1.114,2.09-2.137,1.909l0,0c-1.022-0.179-1.694-1.167-1.611-2.212
						c0.176-2.156,0.008-4.337-0.498-6.439c-0.245-1.02,0.266-2.099,1.247-2.435l0,0c0.982-0.335,2.117,0.35,2.407,1.557
						C474.191-452.387,474.377-449.999,474.275-447.359z"/>
				</g>
			</g>
			<g>
				<g>
					<path fill="#BCBEC0" d="M467.486-446.7c-0.102,1.239-1.115,2.09-2.138,1.909l0,0c-1.023-0.179-1.694-1.167-1.608-2.214
						c0.174-2.153,0.005-4.334-0.501-6.437c-0.244-1.021,0.268-2.1,1.249-2.437l0,0c0.979-0.334,2.115,0.351,2.405,1.558
						C467.401-451.727,467.587-449.339,467.486-446.7z"/>
				</g>
			</g>
			<g>
				<g>
					<path fill="#FFFFFF" d="M490.676-437.437c1.075,3.613-1.67,7.004-5.133,7.777c-9.171,1.951-18.344,2.741-27.714,2.386
						c-3.543-0.173-6.827-3.043-6.386-6.787l0,0c0.428-3.395,3.648-5.821,6.998-5.661c8.246,0.307,16.301-0.386,24.371-2.098
						C486.086-442.549,489.676-440.711,490.676-437.437L490.676-437.437z"/>
				</g>
			</g>
		</g>
	</g>
</g>
</svg>
